<?xml version="1.0" encoding="utf-8"?>
<!-- Generator: Adobe Illustrator 14.0.0, SVG Export Plug-In . SVG Version: 6.00 Build 43363)  -->
<!DOCTYPE svg PUBLIC "-//W3C//DTD SVG 1.1//EN" "http://www.w3.org/Graphics/SVG/1.1/DTD/svg11.dtd">
<svg version="1.1" id="Calque_1" xmlns="http://www.w3.org/2000/svg" xmlns:xlink="http://www.w3.org/1999/xlink" x="0px" y="0px"
	 width="5.694px" height="14.263px" viewBox="0 0 5.694 14.263" enable-background="new 0 0 5.694 14.263" xml:space="preserve">
<path d="M0.684,14.166c-0.033,0-0.068-0.008-0.101-0.018c-0.15-0.057-0.228-0.224-0.172-0.376l1.098-2.975
	c0.056-0.152,0.223-0.229,0.374-0.173C2.035,10.68,2.111,10.848,2.055,11l-1.098,2.975C0.914,14.092,0.804,14.166,0.684,14.166"/>
<path d="M3.737,14.263c-0.161,0-0.29-0.131-0.29-0.293V10.8c0-0.162,0.129-0.293,0.29-0.293c0.16,0,0.292,0.131,0.292,0.293v3.17
	C4.029,14.132,3.897,14.263,3.737,14.263"/>
<path d="M3.121,8.1c-0.009,0-0.016,0-0.024-0.001C2.936,8.086,2.815,7.946,2.827,7.785l0.105-1.341
	c0.013-0.16,0.152-0.282,0.313-0.269c0.159,0.014,0.28,0.153,0.269,0.314L3.409,7.832C3.398,7.984,3.27,8.1,3.121,8.1"/>
<path d="M2.981,6.778c-0.138,0-0.276-0.013-0.411-0.04C1.385,6.514,0.604,5.367,0.829,4.182c0.197-1.031,1.1-1.779,2.147-1.779
	c0.137,0,0.276,0.013,0.411,0.039C4.571,2.667,5.353,3.813,5.127,5C4.932,6.029,4.029,6.778,2.981,6.778 M2.976,2.985
	c-0.768,0-1.43,0.549-1.574,1.305C1.237,5.16,1.81,6.001,2.679,6.167C2.778,6.185,2.88,6.195,2.981,6.195
	c0.768,0,1.43-0.549,1.572-1.306c0.166-0.869-0.406-1.71-1.275-1.875C3.179,2.995,3.075,2.985,2.976,2.985"/>
<path d="M3.337,11.039H1.704C0.765,11.039,0,10.273,0,9.334V9.279c0-0.939,0.765-1.704,1.704-1.704h1.633
	c0.939,0,1.703,0.764,1.703,1.704v0.056C5.04,10.273,4.276,11.039,3.337,11.039 M1.704,8.158c-0.618,0-1.121,0.504-1.121,1.121
	v0.056c0,0.618,0.503,1.121,1.121,1.121h1.633c0.619,0,1.119-0.503,1.119-1.121V9.279c0-0.617-0.5-1.121-1.119-1.121H1.704z"/>
<path d="M4.913,3.633l-0.49-0.316c0.289-0.446,1.002-1.85,0.525-2.438c-0.152-0.19-0.318-0.287-0.506-0.297
	C4.027,0.562,3.62,0.96,3.614,0.963L3.2,0.553c0.026-0.024,0.594-0.587,1.271-0.552C4.829,0.02,5.142,0.19,5.402,0.513
	C5.769,0.966,5.79,1.642,5.463,2.52C5.238,3.126,4.924,3.613,4.913,3.633"/>
<path d="M3.063,1.846c-0.382,0-0.715-0.258-0.81-0.627c-0.055-0.217-0.021-0.44,0.093-0.632c0.113-0.192,0.293-0.328,0.51-0.383
	c0.068-0.017,0.137-0.026,0.207-0.026c0.382,0,0.712,0.259,0.808,0.629c0.113,0.444-0.156,0.9-0.602,1.014
	C3.201,1.838,3.131,1.846,3.063,1.846 M3.063,0.761c-0.021,0-0.042,0.003-0.062,0.008c-0.066,0.017-0.12,0.058-0.155,0.115
	c-0.033,0.058-0.044,0.125-0.028,0.19C2.854,1.207,2.99,1.291,3.125,1.256C3.259,1.222,3.34,1.084,3.306,0.95
	C3.279,0.84,3.178,0.761,3.063,0.761"/>
<path fill="#DD0031" d="M1.407,6.346c0.617,0,1.115-0.499,1.115-1.114c0-0.617-0.498-1.117-1.115-1.117
	c-0.615,0-1.115,0.5-1.115,1.117C0.292,5.847,0.792,6.346,1.407,6.346"/>
<path d="M2.387,4.163c0.185,0,0.335-0.149,0.335-0.333c0-0.185-0.15-0.335-0.335-0.335c-0.184,0-0.333,0.15-0.333,0.335
	C2.054,4.014,2.203,4.163,2.387,4.163"/>
<path d="M3.223,4.694c0.184,0,0.336-0.149,0.336-0.334S3.407,4.026,3.223,4.026S2.891,4.175,2.891,4.36S3.039,4.694,3.223,4.694"/>
</svg>
