<?xml version="1.0" encoding="utf-8"?>
<!-- Generator: Adobe Illustrator 14.0.0, SVG Export Plug-In . SVG Version: 6.00 Build 43363)  -->
<!DOCTYPE svg PUBLIC "-//W3C//DTD SVG 1.1//EN" "http://www.w3.org/Graphics/SVG/1.1/DTD/svg11.dtd">
<svg version="1.1" id="Calque_1" xmlns="http://www.w3.org/2000/svg" xmlns:xlink="http://www.w3.org/1999/xlink" x="0px" y="0px"
	 width="8.282px" height="16.489px" viewBox="0 0 8.282 16.489" enable-background="new 0 0 8.282 16.489" xml:space="preserve">
<path d="M6.948,13.317H0.291C0.13,13.317,0,13.186,0,13.026v-1.512c0-0.039,0.042-3.621,3.62-3.621s3.617,3.582,3.617,3.621v1.512
	C7.237,13.186,7.108,13.317,6.948,13.317 M0.583,12.735h6.072v-1.221c0-0.125-0.045-3.039-3.035-3.039
	c-3.002,0-3.037,2.914-3.037,3.039V12.735z"/>
<path d="M2.363,16.489c-0.162,0-0.29-0.131-0.29-0.293v-3.028c0-0.161,0.128-0.292,0.29-0.292c0.161,0,0.292,0.131,0.292,0.292
	v3.028C2.655,16.358,2.524,16.489,2.363,16.489"/>
<path d="M4.868,16.489c-0.162,0-0.293-0.131-0.293-0.293v-3.028c0-0.161,0.131-0.292,0.293-0.292c0.16,0,0.291,0.131,0.291,0.292
	v3.028C5.159,16.358,5.028,16.489,4.868,16.489"/>
<path d="M3.129,8.308c-0.045,0-0.087-0.01-0.131-0.03C2.854,8.208,2.796,8.033,2.869,7.887l0.488-0.99
	c0.071-0.144,0.246-0.203,0.391-0.131C3.892,6.837,3.95,7.012,3.88,7.157l-0.49,0.99C3.34,8.25,3.235,8.308,3.129,8.308"/>
<path d="M4.69,7.34c-1.417,0-2.569-1.141-2.569-2.543S3.274,2.254,4.69,2.254c1.416,0,2.567,1.141,2.567,2.543S6.106,7.34,4.69,7.34
	 M4.69,2.777c-1.127,0-2.045,0.906-2.045,2.02c0,1.115,0.918,2.021,2.045,2.021c1.129,0,2.047-0.906,2.047-2.021
	C6.737,3.683,5.819,2.777,4.69,2.777"/>
<path d="M3.88,2.545C3.877,2.489,3.828,1.17,4.604,0.48C5,0.13,5.546-0.046,6.062,0.01c0.473,0.051,0.888,0.288,1.164,0.668
	l-0.42,0.309C6.562,0.654,6.236,0.554,6.007,0.53C5.632,0.489,5.239,0.618,4.952,0.872C4.65,1.14,4.515,1.57,4.457,1.883
	C4.39,2.237,4.402,2.518,4.402,2.521L3.88,2.545z"/>
<path d="M7.425,2.104c-0.474,0-0.859-0.386-0.859-0.859c0-0.473,0.386-0.858,0.859-0.858c0.473,0,0.857,0.385,0.857,0.858
	C8.282,1.718,7.897,2.104,7.425,2.104 M7.425,0.909c-0.186,0-0.338,0.151-0.338,0.336c0,0.186,0.152,0.337,0.338,0.337
	c0.185,0,0.336-0.151,0.336-0.337C7.761,1.061,7.609,0.909,7.425,0.909"/>
<path fill="#DD0031" d="M5.852,7.317c0.616,0,1.116-0.5,1.116-1.115c0-0.616-0.5-1.116-1.116-1.116c-0.615,0-1.116,0.5-1.116,1.116
	C4.735,6.817,5.236,7.317,5.852,7.317"/>
<path d="M4.69,5.086c0.186,0,0.336-0.149,0.336-0.334c0-0.184-0.15-0.334-0.336-0.334c-0.185,0-0.334,0.15-0.334,0.334
	C4.356,4.938,4.506,5.086,4.69,5.086"/>
<path d="M5.868,4.841C6.05,4.841,6.2,4.693,6.2,4.507c0-0.184-0.15-0.334-0.332-0.334c-0.187,0-0.337,0.15-0.337,0.334
	C5.531,4.693,5.682,4.841,5.868,4.841"/>
</svg>
