<?xml version="1.0" encoding="utf-8"?>
<!-- Generator: Adobe Illustrator 14.0.0, SVG Export Plug-In . SVG Version: 6.00 Build 43363)  -->
<!DOCTYPE svg PUBLIC "-//W3C//DTD SVG 1.1//EN" "http://www.w3.org/Graphics/SVG/1.1/DTD/svg11.dtd">
<svg version="1.1" id="Calque_1" xmlns="http://www.w3.org/2000/svg" xmlns:xlink="http://www.w3.org/1999/xlink" x="0px" y="0px"
	 width="10.033px" height="16.236px" viewBox="0 0 10.033 16.236" enable-background="new 0 0 10.033 16.236" xml:space="preserve">
<path d="M7.807,5.215c-0.124,0-0.239-0.079-0.279-0.203C7.48,4.857,7.564,4.694,7.721,4.646l0.863-0.27
	C8.737,4.329,8.9,4.414,8.948,4.567c0.048,0.152-0.036,0.316-0.19,0.365l-0.862,0.27C7.865,5.211,7.836,5.215,7.807,5.215"/>
<path d="M6.018,10.729c-0.119,0-0.24-0.021-0.363-0.073c-0.317-0.136-0.896-0.591-1.811-1.323C3.157,8.78,2.379,8.158,2.087,8.034
	c-0.04-0.017-0.384-0.146-0.61,0.373C1.413,8.553,1.241,8.623,1.094,8.559C0.946,8.495,0.878,8.325,0.941,8.177
	c0.01-0.024,0.112-0.258,0.313-0.459c0.307-0.303,0.682-0.381,1.062-0.221c0.365,0.156,1.107,0.751,1.893,1.38
	c0.659,0.528,1.406,1.127,1.675,1.241c0.329,0.142,0.769-0.31,0.896-0.479C6.876,9.51,7.059,9.486,7.186,9.581
	c0.131,0.097,0.156,0.278,0.061,0.407C7.016,10.297,6.54,10.729,6.018,10.729"/>
<path d="M5.186,7.707L5.186,7.707c-1.318,0-2.417-0.99-2.553-2.304C2.56,4.72,2.76,4.051,3.193,3.516
	c0.432-0.532,1.046-0.866,1.731-0.938c0.089-0.009,0.179-0.013,0.269-0.013c1.318,0,2.417,0.99,2.553,2.304
	c0.072,0.683-0.127,1.353-0.561,1.886C6.753,7.289,6.14,7.621,5.455,7.692C5.367,7.702,5.276,7.707,5.186,7.707 M5.193,3.147
	c-0.071,0-0.141,0.003-0.21,0.01C4.455,3.212,3.979,3.471,3.645,3.883C3.31,4.295,3.157,4.813,3.212,5.342
	c0.107,1.016,0.955,1.782,1.974,1.782c0.07,0,0.141-0.003,0.211-0.011C5.924,7.057,6.4,6.801,6.734,6.388
	c0.332-0.412,0.487-0.93,0.434-1.458C7.06,3.913,6.211,3.147,5.193,3.147"/>
<path d="M4.606,16.236c-0.114,0-0.22-0.066-0.267-0.177c-0.036-0.082-0.869-2.045-0.869-4.601c0-2.656,0.85-4.099,0.886-4.16
	c0.083-0.137,0.263-0.182,0.401-0.098c0.138,0.082,0.181,0.261,0.099,0.4c-0.009,0.013-0.804,1.376-0.804,3.857
	c0,2.429,0.814,4.351,0.821,4.371c0.065,0.147-0.004,0.317-0.151,0.383C4.684,16.229,4.645,16.236,4.606,16.236"/>
<path fill="#DD0031" d="M1.116,4.678c0.616,0,1.116-0.498,1.116-1.116c0-0.616-0.5-1.115-1.116-1.115C0.5,2.447,0,2.946,0,3.563
	C0,4.18,0.5,4.678,1.116,4.678"/>
<path fill="#DD0031" d="M8.109,2.231c0.616,0,1.114-0.5,1.114-1.115C9.224,0.5,8.726,0,8.109,0C7.492,0,6.994,0.5,6.994,1.116
	C6.994,1.731,7.492,2.231,8.109,2.231"/>
<path fill="#DD0031" d="M8.916,9.899c0.617,0,1.117-0.5,1.117-1.114c0-0.618-0.5-1.117-1.117-1.117
	c-0.615,0-1.115,0.499-1.115,1.117C7.801,9.399,8.301,9.899,8.916,9.899"/>
<path d="M4.795,4.883c0.186,0,0.334-0.15,0.334-0.334c0-0.186-0.148-0.335-0.334-0.335S4.46,4.363,4.46,4.549
	C4.46,4.733,4.609,4.883,4.795,4.883"/>
<path d="M5.72,4.378c0.185,0,0.332-0.15,0.332-0.334S5.904,3.71,5.72,3.71c-0.187,0-0.335,0.15-0.335,0.334S5.533,4.378,5.72,4.378"
	/>
</svg>
