<?xml version="1.0" encoding="utf-8"?>
<!-- Generator: Adobe Illustrator 14.0.0, SVG Export Plug-In . SVG Version: 6.00 Build 43363)  -->
<!DOCTYPE svg PUBLIC "-//W3C//DTD SVG 1.1//EN" "http://www.w3.org/Graphics/SVG/1.1/DTD/svg11.dtd">
<svg version="1.1" id="Calque_1" xmlns="http://www.w3.org/2000/svg" xmlns:xlink="http://www.w3.org/1999/xlink" x="0px" y="0px"
	 width="8.901px" height="16.333px" viewBox="0 0 8.901 16.333" enable-background="new 0 0 8.901 16.333" xml:space="preserve">
<path d="M8.61,13.161H1.953c-0.161,0-0.291-0.13-0.291-0.292v-1.512c0-0.037,0.041-3.62,3.618-3.62c3.58,0,3.621,3.583,3.621,3.62
	v1.512C8.901,13.031,8.771,13.161,8.61,13.161 M2.245,12.578h6.072v-1.221c0-0.123-0.045-3.037-3.037-3.037
	c-3.001,0-3.035,2.912-3.035,3.037V12.578z"/>
<path d="M4.026,16.333c-0.161,0-0.293-0.131-0.293-0.293v-3.172c0-0.16,0.132-0.289,0.293-0.289c0.16,0,0.292,0.129,0.292,0.289
	v3.172C4.317,16.202,4.186,16.333,4.026,16.333"/>
<path d="M6.529,16.333c-0.161,0-0.292-0.131-0.292-0.293v-3.172c0-0.16,0.131-0.289,0.292-0.289s0.292,0.129,0.292,0.289v3.172
	C6.821,16.202,6.69,16.333,6.529,16.333"/>
<path d="M4.868,8.231c-0.102,0-0.201-0.053-0.254-0.15L4.036,7.049C3.958,6.908,4.007,6.731,4.148,6.652
	c0.14-0.079,0.317-0.028,0.396,0.112l0.578,1.033C5.2,7.938,5.15,8.116,5.011,8.194C4.966,8.22,4.917,8.231,4.868,8.231"/>
<path d="M2.874,7.464c-1.418,0-2.572-1.153-2.572-2.571c0-1.418,1.154-2.57,2.572-2.57c1.418,0,2.571,1.152,2.571,2.57
	C5.444,6.312,4.292,7.464,2.874,7.464 M2.874,2.906c-1.095,0-1.988,0.891-1.988,1.987c0,1.097,0.893,1.988,1.988,1.988
	c1.097,0,1.988-0.891,1.988-1.988C4.861,3.797,3.97,2.906,2.874,2.906"/>
<path d="M5.517,7.063c-0.371,0-0.769-0.117-1.146-0.35l0.308-0.495C5.194,6.537,5.739,6.569,6.069,6.3
	c0.26-0.212,0.771-0.951-0.071-3.232C5.162,0.815,3.03,0.448,2.185,0.627c-0.321,0.068-0.388,0.205-0.41,0.25
	C1.58,1.281,2.039,2.213,2.261,2.66L1.737,2.918c-0.39-0.791-0.782-1.686-0.484-2.295C1.392,0.331,1.667,0.14,2.064,0.055
	c1.286-0.272,3.602,0.434,4.48,2.81c0.402,1.091,0.925,3.044-0.105,3.887C6.183,6.961,5.862,7.063,5.517,7.063"/>
<path d="M6.888,4.134L6.612,3.621c0.712-0.382,0.681-0.806,0.385-1.415C6.865,1.934,6.671,1.75,6.438,1.678
	c-0.254-0.078-0.551-0.026-0.859,0.15L5.29,1.323c0.451-0.26,0.907-0.329,1.32-0.202c0.391,0.121,0.707,0.407,0.91,0.831
	C7.697,2.313,8.233,3.415,6.888,4.134"/>
<path fill="#DD0031" d="M1.116,7.003c0.615,0,1.115-0.5,1.115-1.115c0-0.617-0.5-1.117-1.115-1.117C0.501,4.771,0,5.271,0,5.888
	C0,6.503,0.501,7.003,1.116,7.003"/>
<path d="M2.874,5.484c0.185,0,0.335-0.15,0.335-0.333c0-0.185-0.15-0.335-0.335-0.335c-0.184,0-0.334,0.15-0.334,0.335
	C2.54,5.334,2.689,5.484,2.874,5.484"/>
<path d="M1.953,4.684c0.186,0,0.335-0.148,0.335-0.334c0-0.184-0.149-0.334-0.335-0.334c-0.184,0-0.334,0.15-0.334,0.334
	C1.619,4.536,1.769,4.684,1.953,4.684"/>
</svg>
