<?xml version="1.0" encoding="utf-8"?>
<!-- Generator: Adobe Illustrator 14.0.0, SVG Export Plug-In . SVG Version: 6.00 Build 43363)  -->
<!DOCTYPE svg PUBLIC "-//W3C//DTD SVG 1.1//EN" "http://www.w3.org/Graphics/SVG/1.1/DTD/svg11.dtd">
<svg version="1.1" id="Calque_1" xmlns="http://www.w3.org/2000/svg" xmlns:xlink="http://www.w3.org/1999/xlink" x="0px" y="0px"
	 width="7.344px" height="14.064px" viewBox="0 0 7.344 14.064" enable-background="new 0 0 7.344 14.064" xml:space="preserve">
<path d="M4.291,5.535L4.291,5.535c-1.319,0-2.418-0.991-2.555-2.304C1.664,2.548,1.864,1.878,2.297,1.345
	c0.431-0.534,1.047-0.867,1.729-0.938c0.09-0.01,0.18-0.015,0.271-0.015c1.319,0,2.418,0.99,2.553,2.303
	C6.998,4.107,5.97,5.374,4.56,5.521C4.472,5.53,4.381,5.535,4.291,5.535 M4.296,0.975c-0.07,0-0.14,0.004-0.21,0.011
	C3.559,1.042,3.083,1.298,2.749,1.712C2.413,2.124,2.26,2.642,2.316,3.171c0.106,1.015,0.955,1.781,1.975,1.782
	c0.07,0,0.139-0.004,0.209-0.012c1.09-0.114,1.886-1.093,1.771-2.185C6.164,1.741,5.316,0.975,4.296,0.975"/>
<path d="M3.709,14.064c-0.113,0-0.219-0.066-0.267-0.177c-0.035-0.082-0.869-2.044-0.869-4.601c0-2.655,0.851-4.099,0.888-4.158
	C3.542,4.991,3.723,4.946,3.859,5.03c0.139,0.083,0.184,0.261,0.1,0.399C3.951,5.443,3.156,6.807,3.156,9.287
	c0,2.437,0.813,4.352,0.82,4.371c0.065,0.146-0.004,0.318-0.151,0.383C3.787,14.057,3.749,14.064,3.709,14.064"/>
<path d="M5.52,7.268c-0.396,0-1.312-0.256-2.28-0.527C2.425,6.513,1.502,6.255,1.21,6.255c-0.357,0-0.584,0.586-0.635,0.791
	C0.537,7.202,0.379,7.299,0.222,7.259C0.068,7.221-0.03,7.063,0.009,6.908C0.12,6.448,0.5,5.671,1.21,5.671
	c0.346,0,1.057,0.191,2.187,0.508C4.242,6.416,5.203,6.685,5.52,6.685c0.398,0,0.414-0.523,0.416-0.582
	c0.002-0.161,0.133-0.29,0.293-0.29C6.39,5.813,6.52,5.944,6.52,6.104c0,0.029-0.004,0.283-0.109,0.545
	C6.248,7.049,5.933,7.268,5.52,7.268"/>
<path d="M0.841,2.964c0,0.396,0.322,0.718,0.718,0.718S2.276,3.36,2.276,2.964c0-0.397-0.321-0.719-0.717-0.719
	S0.841,2.567,0.841,2.964"/>
<path d="M5.288,0.718c0,0.396,0.321,0.719,0.72,0.719c0.395,0,0.719-0.323,0.719-0.719S6.402,0,6.008,0
	C5.609,0,5.288,0.322,5.288,0.718"/>
<path fill="#DD0031" d="M6.229,4.763c0.615,0,1.115-0.5,1.115-1.116c0-0.616-0.5-1.115-1.115-1.115
	c-0.617,0-1.116,0.499-1.116,1.115C5.112,4.263,5.611,4.763,6.229,4.763"/>
<path d="M5.111,2.448c0.184,0,0.334-0.149,0.334-0.334S5.295,1.78,5.111,1.78S4.777,1.929,4.777,2.114S4.928,2.448,5.111,2.448"/>
<path d="M4.044,2.934c0.185,0,0.334-0.15,0.334-0.334c0-0.185-0.149-0.335-0.334-0.335S3.709,2.415,3.709,2.6
	C3.709,2.784,3.859,2.934,4.044,2.934"/>
</svg>
