<svg id="g12" xmlns="http://www.w3.org/2000/svg" width="562.905" height="262.184" viewBox="0 0 562.905 262.184">
  <path id="path14" d="M286.453-108.776c-3.751,3.83-10.179,6.781-18.446,9.656-9.959,3.423-15.735,7.055-14.374,13.022,1.036,4.551,7.089,6.475,15.414,4.578,12.4-2.827,21.486-9.354,19.123-19.718Zm7.786,31.261c-4.049,6.867-11.426,12.182-22.732,14.76-17.115,3.9-34.787-1.157-38.792-18.74-4.151-18.217,10.008-26.4,27.55-32.045,13.215-4.335,22.436-8.088,20.932-14.682-.965-4.24-7.247-6.441-16.512-4.33-7.38,1.684-15.107,6.912-15.418,14.25l-20.727,4.722c-1.466-15.852,10.682-30.677,31.882-35.507,32.812-7.48,40.155,13.144,41.624,19.581l9.591,42.079A50.414,50.414,0,0,0,317-74.775l-19,4.33a29.619,29.619,0,0,1-3.759-7.07" transform="translate(114.125 314.23)" fill="#ed1344"/>
  <path id="path16" d="M359.645-56.192l-24.316-.284.652-55.449c.064-5.528-1.435-18.81-17.462-19-10.871-.129-18.518,7.888-18.647,18.574l-.65,55.45L274.9-57.187l1.118-94.871,23.21.272-.107,9.211a31.32,31.32,0,0,1,24.636-11.317c22.292.262,36.832,17.2,36.537,42.255l-.654,55.446" transform="translate(139.638 312.477)" fill="#ed1344"/>
  <path id="path18" d="M346.916-61.989c-19.978-6.781-31.2-22.321-27.894-40.077l20.433,6.932c.469,7.645,7.721,12.826,13.672,14.846,8.082,2.742,15.009,2.37,16.562-2.2,1.5-4.423-.623-7.185-13.624-13.976-13.306-6.9-30.771-17.074-24.821-34.612,4.193-12.351,19.365-21.487,42.087-13.777,18,6.1,28.1,20.419,25.679,36.092l-20.892-7.089c.021-4.075-3.42-8.473-10.89-11.008-9.3-3.157-14.254-1.1-15.237,1.8-1.4,4.116,3.933,7.455,13.174,12.291,18.435,9.827,31.015,18.858,25.22,35.94-5.277,15.555-23.34,21.669-43.469,14.84" transform="translate(163.538 315.88)" fill="#ed1344"/>
  <path id="path146" d="M22.809-86.9a6.158,6.158,0,0,0,4.22-1.749,6.048,6.048,0,0,0,1.749-4.22,6.072,6.072,0,0,0-5.968-5.968,6.151,6.151,0,0,0-4.222,1.749,6.069,6.069,0,0,0-1.749,4.22,6.074,6.074,0,0,0,5.97,5.968h0" transform="translate(-2.004 342.694)" fill="#fab5d5"/>
  <path id="path148" d="M55.407-144.866c4.688,0,4.7-7.288,0-7.288s-4.7,7.288,0,7.288h0" transform="translate(17.233 313.432)" fill="#ed1344"/>
  <path id="path150" d="M37.19-103.023c3.718,0,3.727-5.781,0-5.781s-3.729,5.781,0,5.781h0" transform="translate(7.634 337.225)" fill="#a6d71c"/>
  <path id="path152" d="M253.153-158.937a9.739,9.739,0,0,0,4.985-1.116,9.711,9.711,0,0,0,4.166-2.674,9.71,9.71,0,0,0,2.676-4.166,9.757,9.757,0,0,0,1.113-4.985q-.229-1.719-.463-3.438a12.941,12.941,0,0,0-3.326-5.712q-1.311-1.011-2.618-2.022a12.87,12.87,0,0,0-6.533-1.765,9.726,9.726,0,0,0-4.985,1.112A9.746,9.746,0,0,0,244-181.028a9.674,9.674,0,0,0-2.671,4.165,9.735,9.735,0,0,0-1.118,4.985q.236,1.72.463,3.44A12.961,12.961,0,0,0,244-162.727q1.311,1.01,2.621,2.022a12.878,12.878,0,0,0,6.53,1.768h0" transform="translate(120.594 295.501)" fill="#fabfc0"/>
  <path id="path154" d="M251.069-205.6a5.435,5.435,0,0,0-.653-2.131,3.42,3.42,0,0,0-5.831,0,5.463,5.463,0,0,0-.655,2.131,3.8,3.8,0,0,0,.953,3.6,3.849,3.849,0,0,0,2.618,1.084A3.821,3.821,0,0,0,250.118-202a3.854,3.854,0,0,0,.951-3.6h0" transform="translate(122.588 282.031)" fill="#ed1344"/>
  <path id="path156" d="M237.693-233.95a8.456,8.456,0,0,0,4.3-.963,8.369,8.369,0,0,0,3.591-2.309,8.331,8.331,0,0,0,2.308-3.591,8.381,8.381,0,0,0,.961-4.3c-.132-.987-.266-1.976-.4-2.965a11.164,11.164,0,0,0-2.871-4.926,11.6,11.6,0,0,0-7.891-3.269,8.429,8.429,0,0,0-4.3.96,8.353,8.353,0,0,0-3.591,2.309,8.312,8.312,0,0,0-2.307,3.591,8.385,8.385,0,0,0-.964,4.3q.2,1.487.4,2.97a11.148,11.148,0,0,0,2.871,4.923,11.59,11.59,0,0,0,7.892,3.272h0" transform="translate(113.085 256.281)" fill="#ed1344"/>
  <path id="path158" d="M117.677-209.65a1.824,1.824,0,0,0,0-3.645,1.824,1.824,0,0,0,0,3.645h0" transform="translate(52.377 279.874)" fill="#ed1344"/>
  <path id="path160" d="M82.483-215.6a3.43,3.43,0,0,0,3.392-3.393,3.453,3.453,0,0,0-3.392-3.395,3.432,3.432,0,0,0-3.395,3.395,3.453,3.453,0,0,0,3.395,3.393h0" transform="translate(32.162 274.883)" fill="#ed1344"/>
  <path id="path162" d="M95.527-192.787a9.663,9.663,0,0,0,6.62-2.743,7.022,7.022,0,0,0,1.936-3.013,7.04,7.04,0,0,0,.8-3.606,9.456,9.456,0,0,0-2.741-6.62,9.722,9.722,0,0,0-6.62-2.742,9.653,9.653,0,0,0-6.621,2.742,7,7,0,0,0-1.936,3.013,7.042,7.042,0,0,0-.806,3.607,9.454,9.454,0,0,0,2.742,6.619,9.72,9.72,0,0,0,6.621,2.743h0" transform="translate(36.044 280.853)" fill="#1082ce"/>
  <path id="path164" d="M143.645-245.546c-2.19-2.614-7.8,4.378-9.422,6.2-5.1,5.729-7.045,13.665-2.7,20.474a14.006,14.006,0,0,0,20.763,3.552c2.364-1.938,5.845-5.037,7.024-7.911,1.626-3.97-.794-6.347-4.768-4.851-2.353.886-4.3,2.868-6.05,4.612-3.48,3.468-6.822,6.995-8.455,11.75-2.251,6.557-1.4,19.567,7.575,20.716,3.961.505,7.353-3.034,9.6-5.925,2.115-2.722,2.065-8.019-2.9-6.276-1.862.654-3.331,2.786-4.641,4.141-6.034,6.251-7.641,14.582-4.8,22.832-.292-.843,4.6-3.515,4.285-4.436-2.443-7.1-1.714-14.408,2.68-20.593q-1.817,1.9-3.641,3.8c4.06-4.107,8.272.628,4.908,4.767q2.149-2.218,4.288-4.439c-10.3,7.478-15.4-9.111-13.711-16.694.873-3.9,2.594-8.281,6.578-9.82,6.071-2.344,5.97,3.694,3.167,7.228q2.1-2.184,4.2-4.364a13.95,13.95,0,0,1-21.82-2.528,15.45,15.45,0,0,1-2.074-11.756c.383-1.732,2.848-9.357,5.627-6.04-.109-.13,4.454-4.234,4.285-4.436h0" transform="translate(59.625 261.856)" fill="#ed1c24"/>
  <path id="path166" d="M18.609-148.324a22.61,22.61,0,0,0,8.275,23.915c6.377,4.81,20.388,8.938,26.763,2.077,2.24-2.412,3.592-6.769,4.4-9.934.97-3.8,1.088-8.653-.706-12.192-1.874-3.693-6.837-6.4-10.462-3.2-2.1,1.848-3.446,6.452-4.158,9.093-2.5,9.3,4.681,20.168,12.563,24.635,6.849,3.883,14.823,2.55,18.03-4.925,1.776-4.146,4.693-11.083-.717-14.015-4.418-2.4-6.5,5.261-7.179,8.768-1.889,9.715,3.892,24.387,15.968,20.787,1.342-.4,1.131-5.881,2.4-6.259-12.855,3.83-17.475-11.919-15.817-21.685q-1.2,3.131-2.4,6.259c3.178-6.546,9.01,2.5,7.307,7.13q1.035-2.664,2.068-5.333c-11.137,16.744-33.105-7.72-29.824-21.623q-1.173,3.075-2.346,6.152c2.334-5.075,7.85-5.322,11.211-1.082,3.187,4.012,2.739,10.552,1.195,15.132q1.182-3.074,2.361-6.147c-4.979,8.966-19.6,5.733-26.688,1.2a22.7,22.7,0,0,1-9.848-25.008c-.557,2.142-1.835,4.108-2.4,6.26h0" transform="translate(-1.444 312.098)" fill="#17a353"/>
  <path id="path168" d="M276.872-185.637c11.76,0,11.78-18.275,0-18.275-11.755,0-11.777,18.275,0,18.275h0" transform="translate(135.875 285.025)" fill="#7f248d"/>
  <path id="path170" d="M184.815-200.414a1.736,1.736,0,0,0,0-3.469,1.735,1.735,0,0,0,0,3.469h0" transform="translate(89.272 285.04)" fill="#ed1344"/>
  <path id="path172" d="M188.075-211.81c5.132,0,5.144-7.982,0-7.982s-5.142,7.982,0,7.982h0" transform="translate(89.866 276.309)" fill="#a6d71c"/>
  <path id="path174" d="M118.871-154.373c6.63,0,6.643-10.305,0-10.305s-6.642,10.305,0,10.305h0" transform="translate(51.267 306.558)" fill="#ed1344"/>
  <path id="path176" d="M47.2-199.615c4.2,0,4.212-6.537,0-6.537s-4.212,6.537,0,6.537h0" transform="translate(12.928 283.795)" fill="#ed1344"/>
  <path id="path178" d="M37.346-171.643a8.577,8.577,0,0,0,5.882-2.437,8.453,8.453,0,0,0,2.437-5.882,8.411,8.411,0,0,0-2.437-5.882,8.648,8.648,0,0,0-5.882-2.437,8.578,8.578,0,0,0-5.882,2.437,8.46,8.46,0,0,0-2.436,5.882,8.4,8.4,0,0,0,2.436,5.882,8.65,8.65,0,0,0,5.882,2.437h0" transform="translate(4.685 293.604)" fill="#f1471d"/>
  <path id="path180" d="M11.083-123.09c5.094,0,5.1-7.917,0-7.917s-5.1,7.917,0,7.917h0" transform="translate(-7.26 325.038)" fill="#ed1344"/>
  <path id="path182" d="M128.563-27.695c-33.809,6.241-60.157-11.5-68.115-35.67l30.426-5.618c5.253,9.518,16.644,14.409,32.195,11.536,17.356-3.2,26.588-16.329,23.425-33.456-3.205-17.356-15.9-25.5-34.627-23.442-9.593,1.072-18.668,3.68-27.249,6.431l22.123-51.864-51.84,9.57-5.118-27.723,105.258-19.432-27.8,58.974c24.95.054,43.929,14.5,49.005,41.992,6.2,33.583-13.871,62.46-47.68,68.7" transform="translate(16.079 288.619)" fill="#151922"/>
  <path id="path184" d="M175.8-151.853a9.569,9.569,0,0,0-8.688,10.369,9.558,9.558,0,0,0,10.372,8.674,9.554,9.554,0,0,0,8.685-10.359,9.567,9.567,0,0,0-10.369-8.684" transform="translate(80.453 313.577)" fill="#151922"/>
  <path id="path186" d="M207.389-149.592a9.569,9.569,0,0,0-10.372-8.683,9.564,9.564,0,0,0-8.687,10.369,9.558,9.558,0,0,0,10.367,8.678,9.566,9.566,0,0,0,8.691-10.363" transform="translate(92.101 310.051)" fill="#151922"/>
  <path id="path188" d="M267.434-212.987a9.621,9.621,0,0,1,10.416,8.736,9.616,9.616,0,0,1-8.724,10.412,9.617,9.617,0,0,1-10.417-8.721,9.624,9.624,0,0,1,8.726-10.427M205.742-22.895a73.869,73.869,0,0,0,16.349-3.34,35.168,35.168,0,0,1-14.7-11.89c-.983.136-1.968.26-2.971.348-32.128,2.841-60.544-20.666-63.35-52.4s21.049-59.865,53.18-62.7,60.553,20.671,63.354,52.408a56.109,56.109,0,0,1-.614,14.568,34.826,34.826,0,0,1,11.362,15.2,71.478,71.478,0,0,0,4.132-31.087c-3.533-39.946-39.214-69.541-79.55-65.974a75.633,75.633,0,0,0-7.985,1.149,93.29,93.29,0,0,1,.41-11.146c.892-9.081,3.615-21.661,11.565-30.076a39.81,39.81,0,0,1,29.152-12.393,32.038,32.038,0,0,1,19.712,6.98,24.454,24.454,0,0,0-1.972,12.007,24.578,24.578,0,0,0,26.621,22.289,24.578,24.578,0,0,0,22.3-26.612,24.585,24.585,0,0,0-26.618-22.307,24.351,24.351,0,0,0-10.425,3.418,47.088,47.088,0,0,0-29.331-10.712,54.992,54.992,0,0,0-40.289,17.062c-16.484,17.456-16.576,45.218-15.883,56.1-28.206,12.164-46.824,41.193-44,73.147,3.53,39.938,39.22,69.533,79.552,65.969" transform="translate(57.86 267.864)" fill="#151922"/>
  <path id="path190" d="M227.409-111.837l0,.009c1.566,1.311,1.537,3.924-.057,5.829s-4.162,2.387-5.726,1.077c-.041-.032-.068-.077-.107-.112l-4.895-4.1-4.1,4.895c-.038.038-.05.091-.083.124-1.311,1.568-3.93,1.544-5.83-.051s-2.394-4.166-1.074-5.73c0,0,0-.006,0-.006l-.006-.012,4.187-5L204.838-119a.972.972,0,0,1-.127-.091c-1.57-1.31-1.549-3.924.051-5.826s4.169-2.39,5.733-1.077c0,0,0,.006.006.009l.006-.006,4.988,4.175,4.19-4.995,0,.006c1.316-1.568,3.933-1.546,5.835.055s2.387,4.166,1.077,5.739a1.148,1.148,0,0,0-.112.1l-4.087,4.883Zm10.47-1.026a30.4,30.4,0,0,0-32.921-27.576,30.4,30.4,0,0,0-27.571,32.921,30.392,30.392,0,0,0,32.918,27.571,30.4,30.4,0,0,0,27.574-32.916" transform="translate(86.05 319.796)" fill="#ed1344"/>
  <path id="path192" d="M242.12-227.823c-2.245,10.362,9.517,16.091,17.591,10.34a32.249,32.249,0,0,0,7.9-8.374c1.712-2.788,5.14-12.271-1.039-10.08-2,.71-3.538,2.617-4.975,4.106-4.8,4.964-5.908,10.625-1.057,16.411,3.16,3.769,7.992,6.309,12.37,2.972a32.867,32.867,0,0,0,3.328-3.331,43.169,43.169,0,0,0,4.143-4.839c1.445-2.022,7.383-11.455,3-13.572-1.844-.892-5.348,3.7-6.247,5.227-5.357,9.147,3.964,18.6,12.975,18.1,1.537-.089,2.81-4.355,4.285-4.44-9.514.532-18.613-9.835-12.442-18.875q-2.14,2.218-4.285,4.436c3.034-1.28,2.63,4.647,2.261,6.267-.832,3.657-3.515,7.054-5.857,9.892q2.1-2.18,4.2-4.364c-8.968,8.755-21.28-7.389-14.516-16.083q-2.14,2.218-4.285,4.436c2.458-2.093,6.419-4.194,6.156.5a16.308,16.308,0,0,1-4.462,10.375q2.1-2.175,4.212-4.351c-7.868,6.53-21.515,2.524-18.978-9.192-.362,1.683-3.908,2.705-4.284,4.438h0" transform="translate(121.491 267.268)" fill="#fbc108"/>
</svg>
