<svg id="Calque_1" data-name="Calque 1" xmlns="http://www.w3.org/2000/svg" viewBox="0 0 272.58 162.46"><defs><style>.cls-1{fill:#e4003b;}.cls-2{fill:#05171d;}.cls-3{fill:#f8cadb;}.cls-4{fill:#bccf00;}.cls-5{fill:#fad0cc;}.cls-6{fill:#007bc4;}.cls-7{fill:#e30613;}.cls-8{fill:#009547;}.cls-9{fill:#892a81;}.cls-10{fill:#e84e0f;}.cls-11{fill:#fec700;}</style></defs><path class="cls-1" d="M203.19,120.84c-2,3.32-5.54,5.9-11,7.15-8.29,1.88-16.84-.56-18.78-9.08-2-8.82,4.84-12.78,13.33-15.52,6.4-2.1,10.87-3.91,10.14-7.11-.47-2-3.51-3.12-8-2.09-3.58.81-7.32,3.34-7.47,6.9l-10,2.28c-.71-7.67,5.18-14.85,15.44-17.19,15.89-3.62,19.45,6.36,20.16,9.48L211.61,116a24.34,24.34,0,0,0,2.6,6.13l-9.2,2.09A14.11,14.11,0,0,1,203.19,120.84Zm-3.77-15.14c-1.82,1.85-4.93,3.28-8.93,4.68-4.83,1.65-7.62,3.41-7,6.3.51,2.21,3.44,3.14,7.47,2.22,6-1.37,10.4-4.53,9.26-9.55Z" transform="translate(-5.44 -6.21)"/><path class="cls-1" d="M247.21,130.32l-11.77-.14.31-26.85c0-2.68-.69-9.11-8.45-9.2a8.72,8.72,0,0,0-9,9L218,130l-11.77-.14.54-45.94L218,84l-.05,4.47A15.13,15.13,0,0,1,229.84,83c10.79.12,17.83,8.32,17.69,20.46Z" transform="translate(-5.44 -6.21)"/><path class="cls-1" d="M252.62,129.15c-9.67-3.28-15.11-10.8-13.51-19.4l9.9,3.36c.23,3.7,3.74,6.21,6.62,7.18,3.91,1.33,7.27,1.15,8-1.06s-.3-3.48-6.6-6.77-14.9-8.27-12-16.76c2-6,9.38-10.41,20.38-6.67,8.72,3,13.61,9.89,12.44,17.47l-10.12-3.43c0-2-1.65-4.1-5.27-5.33-4.51-1.53-6.9-.53-7.38.87-.68,2,1.9,3.61,6.38,6,8.92,4.75,15,9.13,12.21,17.4C271.12,129.5,262.37,132.46,252.62,129.15Z" transform="translate(-5.44 -6.21)"/><path class="cls-1" d="M112.72,157.64a2.87,2.87,0,1,0-2.87-2.87,2.88,2.88,0,0,0,2.87,2.87" transform="translate(-5.44 -6.21)"/><path class="cls-2" d="M95,152a.78.78,0,0,0-.78.79v15.07a.82.82,0,0,0,.78.79h3.46a.82.82,0,0,0,.79-.79V152.79a.79.79,0,0,0-.79-.79Z" transform="translate(-5.44 -6.21)"/><path class="cls-2" d="M47.48,168.65H51a.83.83,0,0,0,.8-.79V142.09a.82.82,0,0,0-.8-.79H47.48a.81.81,0,0,0-.79.79v25.77a.82.82,0,0,0,.79.79" transform="translate(-5.44 -6.21)"/><path class="cls-2" d="M80.54,168.65H84a.82.82,0,0,0,.79-.79V152.8A.81.81,0,0,0,84,152H80.54a.82.82,0,0,0-.8.79v15.06a.83.83,0,0,0,.8.79" transform="translate(-5.44 -6.21)"/><path class="cls-2" d="M104.54,168.65H108a.82.82,0,0,0,.79-.79V152.8A.81.81,0,0,0,108,152h-3.5a.82.82,0,0,0-.79.79v15.06a.83.83,0,0,0,.79.79" transform="translate(-5.44 -6.21)"/><path class="cls-2" d="M60.4,168.26a9,9,0,0,0,2.66.41,7.43,7.43,0,0,0,6.57-3.49c.29-.42.12-.83-.3-1.17l-1.78-1.54a.78.78,0,0,0-1,.13,4.31,4.31,0,0,1-3.33,1.58,3.76,3.76,0,0,1-3.06-1.55l9.12-5.48a.8.8,0,0,0,.32-1,10.6,10.6,0,0,0-.51-1A7.63,7.63,0,0,0,58.4,152.5a8.53,8.53,0,0,0-2.77,11.86,8.94,8.94,0,0,0,4.77,3.9m-.13-12.41a3.08,3.08,0,0,1,4,.86l-5.38,3.23a3.27,3.27,0,0,1,1.33-4.09" transform="translate(-5.44 -6.21)"/><path class="cls-2" d="M131,164l-1.79-1.54a.78.78,0,0,0-1,.13,4.3,4.3,0,0,1-3.32,1.58,3.8,3.8,0,0,1-3.07-1.55l9.13-5.49a.78.78,0,0,0,.31-1,10.54,10.54,0,0,0-.5-1,7.63,7.63,0,0,0-10.65-2.63,8.53,8.53,0,0,0-2.77,11.86,8.91,8.91,0,0,0,4.76,3.9,9.12,9.12,0,0,0,2.66.41,7.41,7.41,0,0,0,6.57-3.49c.29-.42.13-.83-.29-1.17M122,155.85a3.1,3.1,0,0,1,4.06.86l-5.39,3.23a3.27,3.27,0,0,1,1.33-4.09" transform="translate(-5.44 -6.21)"/><path class="cls-1" d="M96.78,147.41a2.87,2.87,0,1,0-2.87-2.87,2.87,2.87,0,0,0,2.87,2.87" transform="translate(-5.44 -6.21)"/><path class="cls-1" d="M88.71,157.64a2.87,2.87,0,1,0-2.87-2.87,2.88,2.88,0,0,0,2.87,2.87" transform="translate(-5.44 -6.21)"/><path class="cls-2" d="M166.57,168.25h3.37a.79.79,0,0,0,.8-.79v-8c0-4.37-2-8.32-7.29-8.32a8.48,8.48,0,0,0-5.87,2.58,6.54,6.54,0,0,0-5.41-2.58,7.61,7.61,0,0,0-5.58,2.45l-.58-1.58a.7.7,0,0,0-.71-.46h-1.54a.8.8,0,0,0-.79.8v15.06a.82.82,0,0,0,.79.79h3.38a.82.82,0,0,0,.79-.79V158.3a3.67,3.67,0,0,1,3.49-2.62c2.13,0,3.08,1.38,3.08,3.54v8.24a.79.79,0,0,0,.79.79h3.13a.82.82,0,0,0,.79-.79V159c0-.75-.05-1.58-.05-1.58a4.21,4.21,0,0,1,3.5-1.75c2.08,0,3.12,1.38,3.12,3.54v8.24a.79.79,0,0,0,.79.79" transform="translate(-5.44 -6.21)"/><path class="cls-2" d="M207.67,168.25a.82.82,0,0,0,.79-.79V144.84a.82.82,0,0,0-.79-.79h-3.54a.81.81,0,0,0-.79.79v7.1a9.84,9.84,0,0,0-3.71-.75c-4.95,0-8.24,3.87-8.24,8.74s3.46,8.74,8,8.74a7.32,7.32,0,0,0,5.46-2.5l.41,1.29c.13.46.42.79.79.79Zm-4.17-6.78a3.61,3.61,0,0,1-3.49,2.7,4,4,0,0,1-3.79-4.24,4.1,4.1,0,0,1,4-4.25,5.34,5.34,0,0,1,3.24,1Z" transform="translate(-5.44 -6.21)"/><path class="cls-2" d="M266,151.19a8.25,8.25,0,0,0-5.87,2.45l-.58-1.54a.72.72,0,0,0-.7-.5h-1.59a.8.8,0,0,0-.79.8v15.06a.82.82,0,0,0,.79.79h3.08c.79,0,1-.21,1-.79V158.3a4.19,4.19,0,0,1,3.91-2.62c2,0,3.13,1.38,3.13,3.54v8.24a.79.79,0,0,0,.79.79h3.41a.81.81,0,0,0,.79-.79v-8c0-4.33-2.12-8.28-7.41-8.28" transform="translate(-5.44 -6.21)"/><path class="cls-2" d="M244.45,164l-1.79-1.54a.78.78,0,0,0-1,.12,4.31,4.31,0,0,1-3.33,1.58,3.87,3.87,0,0,1-1.82-.46,4.28,4.28,0,0,1,1.86-8A3.88,3.88,0,0,1,241.2,157c.29.25.67.45,1,.12l1.92-1.83a.79.79,0,0,0,.2-1.17,7.61,7.61,0,0,0-6.16-2.95,8.9,8.9,0,0,0-8.86,8.74,8.71,8.71,0,0,0,6.16,8.32,8.81,8.81,0,0,0,2.66.42,7.42,7.42,0,0,0,6.58-3.5c.29-.41.12-.83-.29-1.16" transform="translate(-5.44 -6.21)"/><path class="cls-2" d="M252.43,167.46V152.39a.79.79,0,0,0-.79-.79h-3.45a.8.8,0,0,0-.8.79v15.07a.82.82,0,0,0,.8.79h3.45a.81.81,0,0,0,.79-.79" transform="translate(-5.44 -6.21)"/><path class="cls-2" d="M212.49,164.07a8.91,8.91,0,0,0,4.76,3.9,8.8,8.8,0,0,0,2.66.41,7.4,7.4,0,0,0,6.57-3.49c.3-.42.13-.83-.29-1.16l-1.78-1.54a.78.78,0,0,0-1,.12,4.32,4.32,0,0,1-3.33,1.58,4,4,0,0,1-1.82-.45,3.89,3.89,0,0,1-1.24-1.1l9.12-5.48a.8.8,0,0,0,.31-1,9.48,9.48,0,0,0-.5-1,7.63,7.63,0,0,0-10.65-2.63,8.53,8.53,0,0,0-2.77,11.86m4.64-8.51a3.08,3.08,0,0,1,4.05.86l-5.38,3.23a3.28,3.28,0,0,1,1.33-4.09" transform="translate(-5.44 -6.21)"/><path class="cls-2" d="M179,168a8.7,8.7,0,0,0,2.66.41,7.41,7.41,0,0,0,6.57-3.49c.29-.42.12-.83-.29-1.16l-1.79-1.54a.77.77,0,0,0-1,.12,4.31,4.31,0,0,1-3.33,1.58,3.94,3.94,0,0,1-1.81-.45,3.82,3.82,0,0,1-1.25-1.1l9.13-5.48a.8.8,0,0,0,.31-1,8,8,0,0,0-.51-1A7.63,7.63,0,0,0,177,152.21a8.53,8.53,0,0,0-2.77,11.86A8.93,8.93,0,0,0,179,168m-.13-12.41a3.09,3.09,0,0,1,4,.86l-5.38,3.23a3.28,3.28,0,0,1,1.33-4.09" transform="translate(-5.44 -6.21)"/><path class="cls-1" d="M250,146.92a2.87,2.87,0,1,0-2.87-2.87,2.86,2.86,0,0,0,2.87,2.87" transform="translate(-5.44 -6.21)"/><path class="cls-1" d="M183.94,146.87h0c.62,0,1.11-.68,1.11-1.52s-.49-1.51-1.11-1.51h-6.61c-.62,0-1.12.67-1.12,1.51s.5,1.52,1.12,1.52h6.61Z" transform="translate(-5.44 -6.21)"/><path class="cls-2" d="M166.57,168.25h3.37a.79.79,0,0,0,.8-.79v-8c0-4.37-2-8.32-7.29-8.32a8.48,8.48,0,0,0-5.87,2.58,6.54,6.54,0,0,0-5.41-2.58,7.61,7.61,0,0,0-5.58,2.45l-.58-1.58a.7.7,0,0,0-.71-.46h-1.54a.8.8,0,0,0-.79.8v15.06a.82.82,0,0,0,.79.79h3.38a.82.82,0,0,0,.79-.79V158.3a3.67,3.67,0,0,1,3.49-2.62c2.13,0,3.08,1.38,3.08,3.54v8.24a.79.79,0,0,0,.79.79h3.13a.82.82,0,0,0,.79-.79V159c0-.75-.05-1.58-.05-1.58a4.21,4.21,0,0,1,3.5-1.75c2.08,0,3.12,1.38,3.12,3.54v8.24a.79.79,0,0,0,.79.79" transform="translate(-5.44 -6.21)"/><path class="cls-2" d="M207.67,168.25a.82.82,0,0,0,.79-.79V144.84a.82.82,0,0,0-.79-.79h-3.54a.81.81,0,0,0-.79.79v7.1a9.84,9.84,0,0,0-3.71-.75c-4.95,0-8.24,3.87-8.24,8.74s3.46,8.74,8,8.74a7.32,7.32,0,0,0,5.46-2.5l.41,1.29c.13.46.42.79.79.79Zm-4.17-6.78a3.61,3.61,0,0,1-3.49,2.7,4,4,0,0,1-3.79-4.24,4.1,4.1,0,0,1,4-4.25,5.34,5.34,0,0,1,3.24,1Z" transform="translate(-5.44 -6.21)"/><path class="cls-2" d="M266,151.19a8.25,8.25,0,0,0-5.87,2.45l-.58-1.54a.72.72,0,0,0-.7-.5h-1.59a.8.8,0,0,0-.79.8v15.06a.82.82,0,0,0,.79.79h3.08c.79,0,1-.21,1-.79V158.3a4.19,4.19,0,0,1,3.91-2.62c2,0,3.13,1.38,3.13,3.54v8.24a.79.79,0,0,0,.79.79h3.41a.81.81,0,0,0,.79-.79v-8c0-4.33-2.12-8.28-7.41-8.28" transform="translate(-5.44 -6.21)"/><path class="cls-2" d="M244.45,164l-1.79-1.54a.78.78,0,0,0-1,.12,4.31,4.31,0,0,1-3.33,1.58,3.87,3.87,0,0,1-1.82-.46,4.28,4.28,0,0,1,1.86-8A3.88,3.88,0,0,1,241.2,157c.29.25.67.45,1,.12l1.92-1.83a.79.79,0,0,0,.2-1.17,7.61,7.61,0,0,0-6.16-2.95,8.9,8.9,0,0,0-8.86,8.74,8.71,8.71,0,0,0,6.16,8.32,8.81,8.81,0,0,0,2.66.42,7.42,7.42,0,0,0,6.58-3.5c.29-.41.12-.83-.29-1.16" transform="translate(-5.44 -6.21)"/><path class="cls-2" d="M252.43,167.46V152.39a.79.79,0,0,0-.79-.79h-3.45a.8.8,0,0,0-.8.79v15.07a.82.82,0,0,0,.8.79h3.45a.81.81,0,0,0,.79-.79" transform="translate(-5.44 -6.21)"/><path class="cls-2" d="M212.49,164.07a8.91,8.91,0,0,0,4.76,3.9,8.8,8.8,0,0,0,2.66.41,7.4,7.4,0,0,0,6.57-3.49c.3-.42.13-.83-.29-1.16l-1.78-1.54a.78.78,0,0,0-1,.12,4.32,4.32,0,0,1-3.33,1.58,4,4,0,0,1-1.82-.45,3.89,3.89,0,0,1-1.24-1.1l9.12-5.48a.8.8,0,0,0,.31-1,9.48,9.48,0,0,0-.5-1,7.63,7.63,0,0,0-10.65-2.63,8.53,8.53,0,0,0-2.77,11.86m4.64-8.51a3.08,3.08,0,0,1,4.05.86l-5.38,3.23a3.28,3.28,0,0,1,1.33-4.09" transform="translate(-5.44 -6.21)"/><path class="cls-2" d="M179,168a8.7,8.7,0,0,0,2.66.41,7.41,7.41,0,0,0,6.57-3.49c.29-.42.12-.83-.29-1.16l-1.79-1.54a.77.77,0,0,0-1,.12,4.31,4.31,0,0,1-3.33,1.58,3.94,3.94,0,0,1-1.81-.45,3.82,3.82,0,0,1-1.25-1.1l9.13-5.48a.8.8,0,0,0,.31-1,8,8,0,0,0-.51-1A7.63,7.63,0,0,0,177,152.21a8.53,8.53,0,0,0-2.77,11.86A8.93,8.93,0,0,0,179,168m-.13-12.41a3.09,3.09,0,0,1,4,.86l-5.38,3.23a3.28,3.28,0,0,1,1.33-4.09" transform="translate(-5.44 -6.21)"/><path class="cls-1" d="M250,146.92a2.87,2.87,0,1,0-2.87-2.87,2.86,2.86,0,0,0,2.87,2.87" transform="translate(-5.44 -6.21)"/><path class="cls-1" d="M183.94,146.87h0c.62,0,1.11-.68,1.11-1.52s-.49-1.51-1.11-1.51h-6.61c-.62,0-1.12.67-1.12,1.51s.5,1.52,1.12,1.52h6.61Z" transform="translate(-5.44 -6.21)"/><path class="cls-3" d="M15.52,130.08a3,3,0,0,0,2-.85,2.89,2.89,0,0,0-2-4.94,3,3,0,0,0-2,.85,2.9,2.9,0,0,0,2,4.94Z" transform="translate(-5.44 -6.21)"/><path class="cls-1" d="M40.62,87.84a1.77,1.77,0,0,0,0-3.53,1.77,1.77,0,0,0,0,3.53Z" transform="translate(-5.44 -6.21)"/><path class="cls-4" d="M27.15,119.62a1.4,1.4,0,0,0,0-2.8,1.4,1.4,0,0,0,0,2.8Z" transform="translate(-5.44 -6.21)"/><path class="cls-5" d="M186.42,72.34a4.78,4.78,0,0,0,2.42-.54,5.63,5.63,0,0,0,3.31-3.31,4.77,4.77,0,0,0,.54-2.41l-.22-1.67a6.25,6.25,0,0,0-1.62-2.76l-1.26-1a6.19,6.19,0,0,0-3.17-.86,4.77,4.77,0,0,0-2.41.54,5.63,5.63,0,0,0-3.31,3.31,4.78,4.78,0,0,0-.54,2.42l.22,1.66A6.41,6.41,0,0,0,182,70.51l1.27,1a6.27,6.27,0,0,0,3.16.85Z" transform="translate(-5.44 -6.21)"/><path class="cls-1" d="M186.38,43.22a2.53,2.53,0,0,0-.32-1,1.66,1.66,0,0,0-2.82,0,2.69,2.69,0,0,0-.32,1,1.8,1.8,0,1,0,3.46,0Z" transform="translate(-5.44 -6.21)"/><path class="cls-1" d="M175.3,17a4.11,4.11,0,0,0,2.08-.47,4.05,4.05,0,0,0,1.74-1.12,4.05,4.05,0,0,0,1.12-1.74,4.11,4.11,0,0,0,.47-2.08l-.2-1.44a5.33,5.33,0,0,0-1.39-2.38,5.59,5.59,0,0,0-3.82-1.58,4,4,0,0,0-2.08.46,4.05,4.05,0,0,0-1.74,1.12,4.05,4.05,0,0,0-1.12,1.74,4,4,0,0,0-.46,2.08l.19,1.44a5.42,5.42,0,0,0,1.39,2.38A5.64,5.64,0,0,0,175.3,17Z" transform="translate(-5.44 -6.21)"/><path class="cls-1" d="M87.79,40.22a.89.89,0,0,0,0-1.77.89.89,0,0,0,0,1.77Z" transform="translate(-5.44 -6.21)"/><path class="cls-1" d="M61,34.92a1.65,1.65,0,1,0-1.64-1.64A1.66,1.66,0,0,0,61,34.92Z" transform="translate(-5.44 -6.21)"/><path class="cls-6" d="M69.16,48.86a4.68,4.68,0,0,0,3.2-1.33,3.41,3.41,0,0,0,.94-1.46,3.49,3.49,0,0,0,.39-1.75,4.57,4.57,0,0,0-1.33-3.2,4.53,4.53,0,0,0-6.41,0A3.41,3.41,0,0,0,65,42.58a3.47,3.47,0,0,0-.39,1.74A4.58,4.58,0,0,0,66,47.53a4.75,4.75,0,0,0,3.21,1.33Z" transform="translate(-5.44 -6.21)"/><path class="cls-7" d="M103.87,14.11c-1.06-1.26-3.78,2.12-4.56,3C96.84,19.88,95.9,23.73,98,27a6.79,6.79,0,0,0,10.06,1.73,12.12,12.12,0,0,0,3.4-3.84c.79-1.92-.39-3.07-2.31-2.34a8.82,8.82,0,0,0-2.93,2.23,15.3,15.3,0,0,0-4.09,5.69c-1.09,3.17-.68,9.47,3.66,10,1.92.24,3.56-1.47,4.65-2.87s1-3.88-1.4-3c-.91.32-1.62,1.35-2.25,2a10.47,10.47,0,0,0-2.32,11.05c-.15-.41,2.22-1.7,2.07-2.15a10.72,10.72,0,0,1,1.3-10l-1.76,1.84c2-2,4,.31,2.37,2.31l2.08-2.15c-5,3.62-7.46-4.41-6.64-8.08.42-1.89,1.25-4,3.18-4.76,2.94-1.13,2.89,1.79,1.54,3.5l2-2.11a6.76,6.76,0,0,1-10.56-1.22,7.52,7.52,0,0,1-1-5.7c.19-.83,1.38-4.53,2.73-2.92,0-.06,2.16-2.05,2.07-2.15Z" transform="translate(-5.44 -6.21)"/><path class="cls-8" d="M13.76,85.52a11,11,0,0,0,4,11.58c3.09,2.33,9.88,4.33,13,1a11.77,11.77,0,0,0,2.13-4.81,8.91,8.91,0,0,0-.34-5.9c-.9-1.79-3.31-3.1-5.06-1.55-1,.9-1.67,3.12-2,4.4-1.21,4.51,2.27,9.77,6.09,11.93,3.31,1.88,7.17,1.24,8.73-2.38.86-2,2.27-5.37-.35-6.79-2.14-1.16-3.15,2.55-3.48,4.25-.91,4.7,1.89,11.81,7.74,10.06.64-.19.54-2.85,1.16-3-6.23,1.86-8.47-5.77-7.66-10.5l-1.16,3C38,93.64,40.86,98,40,100.26l1-2.58c-5.4,8.11-16-3.74-14.45-10.47l-1.13,3c1.13-2.46,3.8-2.58,5.43-.52s1.32,5.1.58,7.32l1.14-3c-2.41,4.34-9.49,2.77-12.92.58a11,11,0,0,1-4.77-12.11c-.27,1-.89,2-1.16,3Z" transform="translate(-5.44 -6.21)"/><path class="cls-9" d="M205.31,54.34c5.69,0,5.7-8.85,0-8.85s-5.7,8.85,0,8.85Z" transform="translate(-5.44 -6.21)"/><path class="cls-1" d="M138.17,47.19a.84.84,0,0,0,0-1.68.84.84,0,0,0,0,1.68Z" transform="translate(-5.44 -6.21)"/><path class="cls-4" d="M140,37.45c2.49,0,2.49-3.87,0-3.87s-2.49,3.87,0,3.87Z" transform="translate(-5.44 -6.21)"/><path class="cls-1" d="M87.83,79.91c3.21,0,3.22-5,0-5s-3.22,5,0,5Z" transform="translate(-5.44 -6.21)"/><path class="cls-1" d="M34.56,47a1.59,1.59,0,0,0,0-3.17,1.59,1.59,0,0,0,0,3.17Z" transform="translate(-5.44 -6.21)"/><path class="cls-10" d="M25.8,65.27a4,4,0,0,0,4-4,4.06,4.06,0,0,0-1.18-2.84,4.17,4.17,0,0,0-2.85-1.18A4.1,4.1,0,0,0,23,58.4a4,4,0,0,0-1.18,2.84A4.09,4.09,0,0,0,23,64.09a4.21,4.21,0,0,0,2.85,1.18Z" transform="translate(-5.44 -6.21)"/><path class="cls-1" d="M7.3,104c2.46,0,2.47-3.83,0-3.83a1.92,1.92,0,0,0,0,3.83Z" transform="translate(-5.44 -6.21)"/><path class="cls-2" d="M75.49,132.56c-16.38,3-29.13-5.57-33-17.27l14.74-2.72c2.54,4.61,8.06,7,15.59,5.58,8.4-1.55,12.87-7.9,11.34-16.2S76.47,89.61,67.4,90.6a67.39,67.39,0,0,0-13.19,3.12L64.92,68.6l-25.1,4.64L37.34,59.81l51-9.41L74.84,79c12.08,0,21.28,7,23.73,20.33C101.58,115.56,91.86,129.54,75.49,132.56Z" transform="translate(-5.44 -6.21)"/><path class="cls-2" d="M129.53,84.53a4.63,4.63,0,1,0,5,4.2,4.63,4.63,0,0,0-5-4.2" transform="translate(-5.44 -6.21)"/><path class="cls-2" d="M150.47,83.91a4.63,4.63,0,1,0-4.21,5,4.64,4.64,0,0,0,4.21-5" transform="translate(-5.44 -6.21)"/><path class="cls-2" d="M133.09,124.83a35.56,35.56,0,0,0,7.92-1.61,17,17,0,0,1-7.12-5.76c-.48.07-.95.13-1.44.17a28,28,0,1,1,25.76-30.36,27.54,27.54,0,0,1-.3,7,16.91,16.91,0,0,1,5.5,7.36,34.56,34.56,0,0,0,2-15.05,35.44,35.44,0,0,0-38.52-31.95,38,38,0,0,0-3.87.56,46.44,46.44,0,0,1,.2-5.4c.43-4.39,1.75-10.48,5.6-14.56a19.28,19.28,0,0,1,14.12-6,15.53,15.53,0,0,1,9.54,3.38,12,12,0,1,0,4.8-5.43,22.78,22.78,0,0,0-14.2-5.18,26.62,26.62,0,0,0-19.52,8.26c-8,8.45-8,21.89-7.69,27.16a35.16,35.16,0,0,0,17.22,67.36m29.87-92a4.65,4.65,0,1,1-4.22,5.05A4.66,4.66,0,0,1,163,32.79" transform="translate(-5.44 -6.21)"/><path class="cls-1" d="M162.3,106.42A14.7,14.7,0,1,0,149,122.36a14.72,14.72,0,0,0,13.35-15.94m-5.07.49h0a2.22,2.22,0,0,1-2.8,3.34s0,0-.05-.05l-2.37-2-2,2.37s0,0,0,.06a2.22,2.22,0,0,1-3.34-2.8h0l2-2.43-2.36-2-.06,0a2.22,2.22,0,0,1,2.8-3.34h0l2.41,2,2-2.42h0a2.22,2.22,0,0,1,3.35,2.8l-.05,0-2,2.36Z" transform="translate(-5.44 -6.21)"/><path class="cls-11" d="M181.52,25.31c-1.09,5,4.6,7.8,8.51,5a15.53,15.53,0,0,0,3.83-4.05c.83-1.35,2.49-5.95-.5-4.88a7,7,0,0,0-2.41,2c-2.32,2.41-2.86,5.15-.51,8,1.53,1.82,3.87,3.06,6,1.44A17.47,17.47,0,0,0,198,31.15a20.5,20.5,0,0,0,2-2.35c.7-1,3.58-5.54,1.46-6.57-.9-.43-2.59,1.79-3,2.53-2.59,4.43,1.92,9,6.29,8.77.74-.05,1.36-2.11,2.07-2.15-4.61.26-9-4.77-6-9.14l-2.07,2.15c1.47-.62,1.27,2.25,1.1,3A12.71,12.71,0,0,1,197,32.21l2-2.11c-4.34,4.24-10.3-3.58-7-7.79l-2.08,2.15c1.19-1,3.11-2,3,.24a7.9,7.9,0,0,1-2.16,5l2-2.1c-3.81,3.16-10.42,1.22-9.19-4.46-.18.82-1.89,1.32-2.07,2.15Z" transform="translate(-5.44 -6.21)"/></svg>