<svg xmlns="http://www.w3.org/2000/svg" width="160" height="109.179" viewBox="0 0 160 109.179">
  <g id="logo_footer" transform="translate(-7.26 256.281)">
    <g id="g12" transform="translate(7.26 -256.281)">
      <path id="path14" d="M244.742-138.909a13.758,13.758,0,0,1-5.187,2.716c-2.8.963-4.426,1.984-4.043,3.662.291,1.28,1.994,1.821,4.335,1.288,3.488-.8,6.043-2.631,5.378-5.545Zm2.19,8.792c-1.139,1.931-3.213,3.426-6.393,4.151-4.813,1.1-9.783-.325-10.91-5.271-1.167-5.123,2.815-7.424,7.748-9.012,3.717-1.219,6.31-2.275,5.887-4.129-.271-1.192-2.038-1.811-4.644-1.218-2.075.473-4.249,1.944-4.336,4.008l-5.829,1.328c-.413-4.458,3-8.627,8.966-9.986,9.228-2.1,11.293,3.7,11.706,5.507l2.7,11.834a14.18,14.18,0,0,0,1.508,3.558l-5.343,1.218a8.33,8.33,0,0,1-1.057-1.988" transform="translate(-130.864 197.33)" fill="#fff"/>
      <path id="path16" d="M298.737-126.417l-6.839-.08.183-15.594c.018-1.555-.4-5.29-4.911-5.343a5.064,5.064,0,0,0-5.244,5.224l-.183,15.595L274.9-126.7l.314-26.681,6.528.077-.03,2.59a8.809,8.809,0,0,1,6.929-3.183c6.269.074,10.359,4.837,10.276,11.884l-.184,15.593" transform="translate(-156.63 199.132)" fill="#fff"/>
      <path id="path18" d="M326.455-123.591c-5.618-1.907-8.775-6.277-7.845-11.271l5.747,1.95c.132,2.15,2.172,3.607,3.845,4.175,2.273.771,4.221.667,4.658-.62.422-1.244-.175-2.021-3.831-3.931-3.742-1.94-8.654-4.8-6.981-9.734,1.179-3.474,5.446-6.043,11.836-3.875,5.061,1.717,7.9,5.743,7.222,10.15l-5.875-1.994c.006-1.146-.962-2.383-3.063-3.1-2.617-.888-4.009-.308-4.285.507-.393,1.157,1.106,2.1,3.705,3.457,5.185,2.764,8.723,5.3,7.093,10.108-1.484,4.375-6.564,6.094-12.225,4.173" transform="translate(-181.206 195.65)" fill="#fff"/>
      <path id="path20" d="M148.13-58.7a1.665,1.665,0,0,0,1.666-1.666,1.666,1.666,0,0,0-1.666-1.667,1.667,1.667,0,0,0-1.668,1.667A1.667,1.667,0,0,0,148.13-58.7" transform="translate(-85.165 147.58)" fill="#fff"/>
      <path id="path22" d="M126.065-61.9a.458.458,0,0,0-.459.459v8.751a.475.475,0,0,0,.459.459h2.007a.474.474,0,0,0,.458-.459v-8.751a.457.457,0,0,0-.458-.459h-2.007" transform="translate(-73.495 147.726)" fill="#fff"/>
      <path id="path24" d="M62.71-60.284h2.03a.477.477,0,0,0,.461-.46V-75.71a.475.475,0,0,0-.461-.458H62.71a.474.474,0,0,0-.458.458v14.966a.476.476,0,0,0,.458.46" transform="translate(-38.297 155.777)" fill="#fff"/>
      <path id="path26" d="M106.786-52.225h2.029a.477.477,0,0,0,.46-.46v-8.746a.476.476,0,0,0-.46-.459h-2.029a.476.476,0,0,0-.46.459v8.746a.477.477,0,0,0,.46.46" transform="translate(-62.704 147.719)" fill="#fff"/>
      <path id="path28" d="M138.8-52.225h2.03a.478.478,0,0,0,.46-.46v-8.746a.477.477,0,0,0-.46-.459H138.8a.476.476,0,0,0-.46.459v8.746a.477.477,0,0,0,.46.46" transform="translate(-80.619 147.719)" fill="#fff"/>
      <path id="path30" d="M75.883-60.159a1.8,1.8,0,0,1,2.356.5l-3.127,1.878a1.907,1.907,0,0,1,.771-2.378m.074,7.208a5.153,5.153,0,0,0,1.546.241,4.3,4.3,0,0,0,3.816-2.028c.169-.242.071-.482-.171-.677l-1.038-.894a.449.449,0,0,0-.6.075,2.511,2.511,0,0,1-1.933.917,2.289,2.289,0,0,1-1.055-.265,2.235,2.235,0,0,1-.722-.636L81.1-59.4a.463.463,0,0,0,.181-.587,5.568,5.568,0,0,0-.293-.585A4.43,4.43,0,0,0,74.8-62.1a4.95,4.95,0,0,0-1.611,6.886,5.183,5.183,0,0,0,2.767,2.265" transform="translate(-43.721 148.218)" fill="#fff"/>
      <path id="path32" d="M158.151-60.158a1.805,1.805,0,0,1,2.358.5l-3.128,1.878a1.906,1.906,0,0,1,.77-2.378m5.193,4.742-1.038-.892a.453.453,0,0,0-.605.073,2.506,2.506,0,0,1-1.931.918,2.283,2.283,0,0,1-1.055-.266,2.226,2.226,0,0,1-.723-.636l5.3-3.185a.462.462,0,0,0,.18-.586,6.324,6.324,0,0,0-.293-.585,4.431,4.431,0,0,0-6.185-1.525,4.949,4.949,0,0,0-1.61,6.885,5.189,5.189,0,0,0,2.768,2.265,5.15,5.15,0,0,0,1.545.241,4.3,4.3,0,0,0,3.815-2.028c.17-.242.073-.482-.168-.678" transform="translate(-89.707 148.217)" fill="#fff"/>
      <path id="path34" d="M126.879-72.339A1.666,1.666,0,0,0,128.546-74a1.667,1.667,0,0,0-1.667-1.667A1.667,1.667,0,0,0,125.213-74a1.666,1.666,0,0,0,1.666,1.666" transform="translate(-73.273 155.211)" fill="#fff"/>
      <path id="path36" d="M116.117-58.7a1.666,1.666,0,0,0,1.668-1.666,1.666,1.666,0,0,0-1.668-1.667,1.667,1.667,0,0,0-1.666,1.667,1.666,1.666,0,0,0,1.666,1.666" transform="translate(-67.249 147.58)" fill="#fff"/>
      <path id="path38" d="M204.338-53.071H206.3a.46.46,0,0,0,.459-.46v-4.618c0-2.539-1.135-4.835-4.232-4.835a4.926,4.926,0,0,0-3.407,1.5,3.813,3.813,0,0,0-3.142-1.5,4.406,4.406,0,0,0-3.24,1.427l-.339-.918a.409.409,0,0,0-.41-.266h-.895a.46.46,0,0,0-.459.459v8.751a.477.477,0,0,0,.459.46h1.959a.476.476,0,0,0,.459-.46V-58.85a2.136,2.136,0,0,1,2.03-1.522c1.233,0,1.789.8,1.789,2.055v4.786a.459.459,0,0,0,.459.46H199.6a.475.475,0,0,0,.459-.46v-4.908c0-.435-.024-.918-.024-.918a2.433,2.433,0,0,1,2.03-1.016c1.21,0,1.815.8,1.815,2.055v4.786a.459.459,0,0,0,.459.46" transform="translate(-109.805 148.336)" fill="#fff"/>
      <path id="path40" d="M262.224-62.382a2.108,2.108,0,0,1-2.03,1.571,2.307,2.307,0,0,1-2.2-2.466,2.377,2.377,0,0,1,2.345-2.467,3.131,3.131,0,0,1,1.886.556v2.8Zm2.417,3.942a.477.477,0,0,0,.459-.46v-13.14a.476.476,0,0,0-.459-.458h-2.054a.474.474,0,0,0-.459.458v4.122a5.8,5.8,0,0,0-2.152-.436,4.779,4.779,0,0,0-4.786,5.077,4.841,4.841,0,0,0,4.642,5.077A4.241,4.241,0,0,0,263-59.651l.242.75c.073.266.243.46.459.46h.943" transform="translate(-145.962 153.707)" fill="#fff"/>
      <path id="path42" d="M347.432-62.984a4.761,4.761,0,0,0-3.409,1.427l-.338-.894a.421.421,0,0,0-.41-.292h-.92a.46.46,0,0,0-.458.461v8.751a.477.477,0,0,0,.458.461h1.79c.459,0,.6-.123.6-.461V-58.85a2.426,2.426,0,0,1,2.271-1.522c1.16,0,1.813.8,1.813,2.054v4.786a.461.461,0,0,0,.46.461h1.982a.476.476,0,0,0,.459-.461v-4.642c0-2.514-1.231-4.81-4.3-4.81" transform="translate(-194.44 148.336)" fill="#fff"/>
      <path id="path44" d="M314.561-55.538l-1.04-.9a.452.452,0,0,0-.606.075,2.508,2.508,0,0,1-1.934.916,2.234,2.234,0,0,1-1.053-.27,2.45,2.45,0,0,1-1.29-2.194,2.426,2.426,0,0,1,2.368-2.466,2.272,2.272,0,0,1,1.668.773c.169.145.387.265.6.072l1.113-1.063a.46.46,0,0,0,.119-.679,4.421,4.421,0,0,0-3.578-1.716,5.17,5.17,0,0,0-5.147,5.078,5.066,5.066,0,0,0,3.578,4.835,5.166,5.166,0,0,0,1.546.242,4.311,4.311,0,0,0,3.82-2.032c.17-.243.072-.485-.169-.677" transform="translate(-174.059 148.336)" fill="#fff"/>
      <path id="path46" d="M332.784-53.217v-8.751a.458.458,0,0,0-.459-.459h-2.005a.459.459,0,0,0-.459.459v8.751a.476.476,0,0,0,.459.459h2.005a.475.475,0,0,0,.459-.459" transform="translate(-187.646 148.023)" fill="#fff"/>
      <path id="path48" d="M285.029-60.543a1.8,1.8,0,0,1,2.356.5l-3.127,1.877a1.905,1.905,0,0,1,.771-2.378M282.335-55.6a5.181,5.181,0,0,0,2.767,2.265,5.183,5.183,0,0,0,1.545.239,4.3,4.3,0,0,0,3.817-2.029c.169-.241.071-.482-.17-.675l-1.038-.895a.45.45,0,0,0-.6.073,2.5,2.5,0,0,1-1.932.919,2.274,2.274,0,0,1-1.055-.266,2.242,2.242,0,0,1-.722-.636l5.3-3.185a.461.461,0,0,0,.181-.586,5.909,5.909,0,0,0-.293-.585,4.431,4.431,0,0,0-6.184-1.527,4.952,4.952,0,0,0-1.611,6.888" transform="translate(-160.733 148.435)" fill="#fff"/>
      <path id="path50" d="M233.965-60.544a1.8,1.8,0,0,1,2.356.5l-3.126,1.878a1.908,1.908,0,0,1,.77-2.379m.074,7.21a5.21,5.21,0,0,0,1.547.239,4.3,4.3,0,0,0,3.814-2.029c.171-.241.074-.481-.168-.676l-1.038-.894a.447.447,0,0,0-.6.073,2.505,2.505,0,0,1-1.933.919,2.269,2.269,0,0,1-1.055-.266,2.237,2.237,0,0,1-.724-.636l5.3-3.184a.461.461,0,0,0,.181-.587,5.513,5.513,0,0,0-.292-.585,4.432,4.432,0,0,0-6.186-1.527,4.951,4.951,0,0,0-1.61,6.887,5.19,5.19,0,0,0,2.767,2.265" transform="translate(-132.164 148.435)" fill="#fff"/>
      <path id="path52" d="M331.19-72.993a1.665,1.665,0,0,0,1.667-1.664,1.668,1.668,0,0,0-1.667-1.668,1.667,1.667,0,0,0-1.666,1.668,1.665,1.665,0,0,0,1.666,1.664" transform="translate(-187.457 155.577)" fill="#fff"/>
      <path id="path54" d="M239.438-71.023v0h0c.356,0,.646-.394.646-.88s-.29-.879-.646-.879l-.026,0h-3.791l-.026,0c-.356,0-.645.393-.645.879s.289.88.645.88h3.841" transform="translate(-134.676 153.581)" fill="#fff"/>
      <path id="path56" d="M204.338-53.071H206.3a.46.46,0,0,0,.459-.46v-4.618c0-2.539-1.135-4.835-4.232-4.835a4.926,4.926,0,0,0-3.407,1.5,3.813,3.813,0,0,0-3.142-1.5,4.406,4.406,0,0,0-3.24,1.427l-.339-.918a.409.409,0,0,0-.41-.266h-.895a.46.46,0,0,0-.459.459v8.751a.477.477,0,0,0,.459.46h1.959a.476.476,0,0,0,.459-.46V-58.85a2.136,2.136,0,0,1,2.03-1.522c1.233,0,1.789.8,1.789,2.055v4.786a.459.459,0,0,0,.459.46H199.6a.475.475,0,0,0,.459-.46v-4.908c0-.435-.024-.918-.024-.918a2.433,2.433,0,0,1,2.03-1.016c1.21,0,1.815.8,1.815,2.055v4.786a.459.459,0,0,0,.459.46" transform="translate(-109.805 148.336)" fill="#fff"/>
      <path id="path58" d="M262.224-62.382a2.108,2.108,0,0,1-2.03,1.571,2.307,2.307,0,0,1-2.2-2.466,2.377,2.377,0,0,1,2.345-2.467,3.131,3.131,0,0,1,1.886.556v2.8Zm2.417,3.942a.477.477,0,0,0,.459-.46v-13.14a.476.476,0,0,0-.459-.458h-2.054a.474.474,0,0,0-.459.458v4.122a5.8,5.8,0,0,0-2.152-.436,4.779,4.779,0,0,0-4.786,5.077,4.841,4.841,0,0,0,4.642,5.077A4.241,4.241,0,0,0,263-59.651l.242.75c.073.266.243.46.459.46h.943" transform="translate(-145.962 153.707)" fill="#fff"/>
      <path id="path60" d="M347.432-62.984a4.761,4.761,0,0,0-3.409,1.427l-.338-.894a.421.421,0,0,0-.41-.292h-.92a.46.46,0,0,0-.458.461v8.751a.477.477,0,0,0,.458.461h1.79c.459,0,.6-.123.6-.461V-58.85a2.426,2.426,0,0,1,2.271-1.522c1.16,0,1.813.8,1.813,2.054v4.786a.461.461,0,0,0,.46.461h1.982a.476.476,0,0,0,.459-.461v-4.642c0-2.514-1.231-4.81-4.3-4.81" transform="translate(-194.44 148.336)" fill="#fff"/>
      <path id="path62" d="M314.561-55.538l-1.04-.9a.452.452,0,0,0-.606.075,2.508,2.508,0,0,1-1.934.916,2.234,2.234,0,0,1-1.053-.27,2.45,2.45,0,0,1-1.29-2.194,2.426,2.426,0,0,1,2.368-2.466,2.272,2.272,0,0,1,1.668.773c.169.145.387.265.6.072l1.113-1.063a.46.46,0,0,0,.119-.679,4.421,4.421,0,0,0-3.578-1.716,5.17,5.17,0,0,0-5.147,5.078,5.066,5.066,0,0,0,3.578,4.835,5.166,5.166,0,0,0,1.546.242,4.311,4.311,0,0,0,3.82-2.032c.17-.243.072-.485-.169-.677" transform="translate(-174.059 148.336)" fill="#fff"/>
      <path id="path64" d="M332.784-53.217v-8.751a.458.458,0,0,0-.459-.459h-2.005a.459.459,0,0,0-.459.459v8.751a.476.476,0,0,0,.459.459h2.005a.475.475,0,0,0,.459-.459" transform="translate(-187.646 148.023)" fill="#fff"/>
      <path id="path66" d="M285.029-60.543a1.8,1.8,0,0,1,2.356.5l-3.127,1.877a1.905,1.905,0,0,1,.771-2.378M282.335-55.6a5.181,5.181,0,0,0,2.767,2.265,5.183,5.183,0,0,0,1.545.239,4.3,4.3,0,0,0,3.817-2.029c.169-.241.071-.482-.17-.675l-1.038-.895a.45.45,0,0,0-.6.073,2.5,2.5,0,0,1-1.932.919,2.274,2.274,0,0,1-1.055-.266,2.242,2.242,0,0,1-.722-.636l5.3-3.185a.461.461,0,0,0,.181-.586,5.909,5.909,0,0,0-.293-.585,4.431,4.431,0,0,0-6.184-1.527,4.952,4.952,0,0,0-1.611,6.888" transform="translate(-160.733 148.435)" fill="#fff"/>
      <path id="path68" d="M233.965-60.544a1.8,1.8,0,0,1,2.356.5l-3.126,1.878a1.908,1.908,0,0,1,.77-2.379m.074,7.21a5.21,5.21,0,0,0,1.547.239,4.3,4.3,0,0,0,3.814-2.029c.171-.241.074-.481-.168-.676l-1.038-.894a.447.447,0,0,0-.6.073,2.505,2.505,0,0,1-1.933.919,2.269,2.269,0,0,1-1.055-.266,2.237,2.237,0,0,1-.724-.636l5.3-3.184a.461.461,0,0,0,.181-.587,5.513,5.513,0,0,0-.292-.585,4.432,4.432,0,0,0-6.186-1.527,4.951,4.951,0,0,0-1.61,6.887,5.19,5.19,0,0,0,2.767,2.265" transform="translate(-132.164 148.435)" fill="#fff"/>
      <path id="path70" d="M331.19-72.993a1.665,1.665,0,0,0,1.667-1.664,1.668,1.668,0,0,0-1.667-1.668,1.667,1.667,0,0,0-1.666,1.668,1.665,1.665,0,0,0,1.666,1.664" transform="translate(-187.457 155.577)" fill="#fff"/>
      <path id="path72" d="M239.438-71.023v0h0c.356,0,.646-.394.646-.88s-.29-.879-.646-.879l-.026,0h-3.791l-.026,0c-.356,0-.645.393-.645.879s.289.88.645.88h3.841" transform="translate(-134.676 153.581)" fill="#fff"/>
      <path id="path74" d="M266.653-23.423v4.23h.951a2.277,2.277,0,0,0,1.66-.6,2.054,2.054,0,0,0,.61-1.53,2.03,2.03,0,0,0-.61-1.53,2.275,2.275,0,0,0-1.668-.585Zm.951-.586a2.983,2.983,0,0,1,2.132.74,2.52,2.52,0,0,1,.79,1.927,2.549,2.549,0,0,1-.79,1.936,2.953,2.953,0,0,1-2.132.757H266.01v-5.369H267.6v.008" transform="translate(-152.061 126.344)" fill="#fff"/>
      <path id="path76" d="M280.219-20.438a1.271,1.271,0,0,0-.863.318,1.41,1.41,0,0,0-.463.829H281.4a1.088,1.088,0,0,0-.35-.829,1.207,1.207,0,0,0-.838-.31Zm1.814,1.228a2.145,2.145,0,0,1-.049.473H278.86a1.406,1.406,0,0,0,.464.944,1.458,1.458,0,0,0,.992.357,1.682,1.682,0,0,0,1.212-.537l.366.422a2.078,2.078,0,0,1-1.586.692,2.017,2.017,0,0,1-1.489-.595,2,2,0,0,1-.6-1.472,2.013,2.013,0,0,1,.586-1.464,1.941,1.941,0,0,1,1.44-.6,1.775,1.775,0,0,1,1.286.5,1.722,1.722,0,0,1,.512,1.286l-.008-.008" transform="translate(-158.898 124.636)" fill="#fff"/>
      <path id="path78" d="M291.451-17.431a1.313,1.313,0,0,0,1-.423,1.507,1.507,0,0,0,.407-1.074,1.5,1.5,0,0,0-.4-1.074,1.322,1.322,0,0,0-1.008-.423,1.37,1.37,0,0,0-.976.374,1.44,1.44,0,0,0-.4,1.107,1.465,1.465,0,0,0,.407,1.114,1.379,1.379,0,0,0,.976.382Zm.1-3.58a1.848,1.848,0,0,1,1.407.594,2.066,2.066,0,0,1,.562,1.473,2.092,2.092,0,0,1-.562,1.489,1.831,1.831,0,0,1-1.4.594,2.062,2.062,0,0,1-.83-.171,1.5,1.5,0,0,1-.626-.488v2.042h-.627V-20.9h.586v.635a1.576,1.576,0,0,1,.634-.537,1.988,1.988,0,0,1,.879-.2l-.025-.009" transform="translate(-165.196 124.647)" fill="#fff"/>
      <path id="path80" d="M304.44-18.378a1.654,1.654,0,0,1-.464,1.2,1.581,1.581,0,0,1-1.163.464,1.587,1.587,0,0,1-1.171-.464,1.644,1.644,0,0,1-.464-1.212v-2.384h.618v2.425a1,1,0,0,0,.292.757,1.022,1.022,0,0,0,.733.284.989.989,0,0,0,.724-.293,1.031,1.031,0,0,0,.293-.765v-2.424h.626l-.024,2.407" transform="translate(-171.458 124.519)" fill="#fff"/>
      <path id="path82" d="M312.187-19.367h-.626v-3.962h.626Zm-.31-5.931a.427.427,0,0,1,.318.13.435.435,0,0,1,.139.317.435.435,0,0,1-.131.325.436.436,0,0,1-.326.131.455.455,0,0,1-.333-.131.44.44,0,0,1-.138-.325.436.436,0,0,1,.138-.317.459.459,0,0,1,.333-.139v.009" transform="translate(-177.231 127.071)" fill="#fff"/>
      <path id="path84" d="M317.037-21.01a1.612,1.612,0,0,1,1.318.627l-.382.391a1.328,1.328,0,0,0-.976-.439.769.769,0,0,0-.472.13.425.425,0,0,0-.179.366.394.394,0,0,0,.146.317,2.011,2.011,0,0,0,.5.269l.367.154a2.282,2.282,0,0,1,.8.5.953.953,0,0,1,.245.667,1.007,1.007,0,0,1-.4.854,1.573,1.573,0,0,1-.984.3,1.823,1.823,0,0,1-1.537-.773l.4-.415a1.618,1.618,0,0,0,1.139.611.954.954,0,0,0,.545-.147.466.466,0,0,0,.22-.407.43.43,0,0,0-.163-.358,2.784,2.784,0,0,0-.529-.268L316.7-18.8a2.27,2.27,0,0,1-.74-.456.862.862,0,0,1-.244-.642.969.969,0,0,1,.382-.814,1.506,1.506,0,0,1,.951-.293l-.016-.009" transform="translate(-179.528 124.647)" fill="#fff"/>
      <path id="path86" d="M331.8-17.862h1.147v.553h-3.018v-.553h1.237v-3.205h-1.156v-.578h1.79v3.783" transform="translate(-187.683 125.005)" fill="#fff"/>
      <path id="path88" d="M339.828-18.8a1.144,1.144,0,0,0,.855-.357,1.218,1.218,0,0,0,.341-.879,1.218,1.218,0,0,0-.341-.879,1.144,1.144,0,0,0-.863-.35,1.16,1.16,0,0,0-.854.35,1.188,1.188,0,0,0-.35.879,1.188,1.188,0,0,0,.35.879,1.16,1.16,0,0,0,.854.35Zm0-3.035a1.779,1.779,0,0,1,1.293.513,1.731,1.731,0,0,1,.53,1.286,1.786,1.786,0,0,1-.106.61,2.266,2.266,0,0,1-.228.488c-.08.122-.211.325-.4.6l-1.31,1.9h-.74l1.342-1.929a1.4,1.4,0,0,1-.464.073,1.674,1.674,0,0,1-1.229-.512,1.7,1.7,0,0,1-.512-1.245,1.706,1.706,0,0,1,.537-1.286,1.83,1.83,0,0,1,1.31-.513l-.024.016" transform="translate(-192.244 125.121)" fill="#fff"/>
      <path id="path90" d="M350.113-18.8a1.14,1.14,0,0,0,.854-.357,1.215,1.215,0,0,0,.342-.879,1.215,1.215,0,0,0-.342-.879,1.139,1.139,0,0,0-.862-.35,1.163,1.163,0,0,0-.855.35,1.191,1.191,0,0,0-.35.879,1.191,1.191,0,0,0,.35.879,1.163,1.163,0,0,0,.855.35Zm0-3.035a1.779,1.779,0,0,1,1.293.513,1.728,1.728,0,0,1,.529,1.286,1.784,1.784,0,0,1-.105.61,2.306,2.306,0,0,1-.228.488c-.081.122-.211.325-.4.6l-1.309,1.9h-.741l1.342-1.929a1.393,1.393,0,0,1-.463.073,1.672,1.672,0,0,1-1.229-.512,1.694,1.694,0,0,1-.513-1.245,1.707,1.707,0,0,1,.537-1.286,1.828,1.828,0,0,1,1.31-.513l-.024.016" transform="translate(-198.049 125.121)" fill="#fff"/>
      <path id="path92" d="M360.989-17.862h1.147v.553h-3.018v-.553h1.237v-3.205H359.2v-.578h1.79v3.783" transform="translate(-204.16 125.005)" fill="#fff"/>
      <path id="path94" d="M63.1-22.161c.749,0,.938-.4.938-.75,0-.393-.189-.741-.975-.741h-.69v1.491Zm-.087.888h-.64v2.159H61.28v-5.47h2.044a1.629,1.629,0,0,1,1.8,1.629,1.58,1.58,0,0,1-1.018,1.535l1.273,2.305h-1.3l-1.069-2.159" transform="translate(-37.749 126.663)" fill="#fff"/>
      <path id="path96" d="M71.474-22.908H72.52v3.738H71.474ZM72-24.683a.623.623,0,0,1,.611.6.631.631,0,0,1-.611.618.627.627,0,0,1-.61-.6.63.63,0,0,1,.61-.618" transform="translate(-43.453 126.719)" fill="#fff"/>
      <path id="path98" d="M75.677-20.741h1v.72H76.7a1.125,1.125,0,0,1,1.076-.822h.145v1.018h-.233a.905.905,0,0,0-.961.989V-17H75.677v-3.738" transform="translate(-45.552 124.552)" fill="#fff"/>
      <path id="path100" d="M83.934-19.243a.85.85,0,0,0-.814-.8.849.849,0,0,0-.873.8Zm-1.688.67a.88.88,0,0,0,.873.872.809.809,0,0,0,.749-.443l1.018.08A1.765,1.765,0,0,1,83.068-16.9a1.835,1.835,0,0,1-1.913-1.964,1.839,1.839,0,0,1,1.913-1.978,1.839,1.839,0,0,1,1.913,1.978v.292H82.246" transform="translate(-48.614 124.552)" fill="#fff"/>
      <path id="path102" d="M97.495-20.648l-.873.08c-.48.043-.64.188-.64.458,0,.335.305.437.655.437.327,0,.859-.182.859-.633Zm-1.739-3.767h.981l.64,1.018h-.6Zm1.782,4.909h-.014a1.544,1.544,0,0,1-1.281.589,1.169,1.169,0,0,1-1.309-1.142c0-.4.131-1.062,1.593-1.149l.968-.06v-.174c0-.444-.277-.662-.735-.662-.43,0-.684.219-.706.554h-1c.037-.575.444-1.31,1.753-1.31.924,0,1.695.35,1.695,1.208v2.167a2.045,2.045,0,0,0,.051.465H97.538v-.487" transform="translate(-56.326 126.568)" fill="#fff"/>
      <path id="path104" d="M108.947-24.584h1.047v5.47h-1.047v-5.47" transform="translate(-64.176 126.663)" fill="#fff"/>
      <path id="path106" d="M113.983-24.511l-.836,1.92-.677-.2.538-2.022.975.306" transform="translate(-66.147 126.795)" fill="#fff"/>
      <path id="path108" d="M119.483-21.391a.63.63,0,0,0-.655-.72c-.422,0-.684.364-.684.873v2.124H117.1v-5.47h1.047v2.219h.014a1.17,1.17,0,0,1,1.063-.59,1.2,1.2,0,0,1,1.309,1.3v2.538h-1.047v-2.277" transform="translate(-68.73 126.663)" fill="#fff"/>
      <path id="path110" d="M128.179-22.016c-.553,0-.822.48-.822,1.128s.269,1.127.822,1.127.822-.48.822-1.127S128.732-22.016,128.179-22.016Zm0-1.993-.509.655H127l.778-1.062h.8l.779,1.062h-.67Zm0,5.091a1.837,1.837,0,0,1-1.913-1.971,1.837,1.837,0,0,1,1.913-1.972,1.837,1.837,0,0,1,1.913,1.972,1.837,1.837,0,0,1-1.913,1.971" transform="translate(-73.86 126.568)" fill="#fff"/>
      <path id="path112" d="M138.429-20c-.6,0-.93.5-.93,1.12a.979.979,0,0,0,.96,1.092.986.986,0,0,0,.916-1.106A.987.987,0,0,0,138.429-20Zm-1.942-.742h1v.524h.014a1.392,1.392,0,0,1,1.215-.626,1.855,1.855,0,0,1,1.746,1.978,1.808,1.808,0,0,1-1.73,1.964,1.352,1.352,0,0,1-1.186-.611h-.014v2.139h-1.047v-5.368" transform="translate(-79.58 124.552)" fill="#fff"/>
      <path id="path114" d="M146.762-22.908h1.047v3.738h-1.047Zm.523-1.775a.623.623,0,0,1,.611.6.631.631,0,0,1-.611.618.627.627,0,0,1-.611-.6.63.63,0,0,1,.611-.618" transform="translate(-85.293 126.719)" fill="#fff"/>
      <path id="path116" d="M150.133-22h.48v-1.077h1.047V-22h.553v.8h-.553v1.891c0,.167.073.247.342.247a.833.833,0,0,0,.211-.023v.822a3.909,3.909,0,0,1-.5.044c-.684,0-1.1-.168-1.1-.975V-21.2h-.48V-22" transform="translate(-87.225 125.816)" fill="#fff"/>
      <path id="path118" d="M158.17-18.632l-.872.08c-.48.043-.641.188-.641.458,0,.335.305.437.655.437.327,0,.858-.182.858-.633Zm.045,1.142H158.2a1.541,1.541,0,0,1-1.28.589,1.17,1.17,0,0,1-1.31-1.142c0-.4.132-1.062,1.593-1.149l.968-.06v-.174c0-.444-.277-.662-.734-.662-.429,0-.684.219-.706.554h-1c.037-.575.444-1.31,1.753-1.31.923,0,1.694.35,1.694,1.208v2.167a1.992,1.992,0,0,0,.052.465h-1.011v-.487" transform="translate(-90.283 124.552)" fill="#fff"/>
      <path id="path120" d="M165.564-24.584h1.047v5.47h-1.047v-5.47" transform="translate(-95.866 126.663)" fill="#fff"/>
      <path id="path122" d="M169.176-14.73l1.026.333-.931,2.081-.684-.226.589-2.188" transform="translate(-97.556 121.102)" fill="#fff"/>
      <path id="path124" d="M179.777-19.308c-.022-.525-.328-.648-.6-.648-.648,0-.727.684-.727,1.164s.175,1.047.72,1.047a.635.635,0,0,0,.661-.611l1.026.036a1.573,1.573,0,0,1-1.659,1.419,1.732,1.732,0,0,1-1.841-1.935,1.794,1.794,0,0,1,1.819-2.007,1.546,1.546,0,0,1,1.695,1.491l-1.091.044" transform="translate(-102.452 124.552)" fill="#fff"/>
      <path id="path126" d="M187.47-24.511l-.837,1.92-.676-.2.538-2.022.975.306" transform="translate(-107.278 126.795)" fill="#fff"/>
      <path id="path128" d="M192.926-19.243a.85.85,0,0,0-.814-.8.848.848,0,0,0-.873.8Zm-1.687.67a.878.878,0,0,0,.873.872.809.809,0,0,0,.749-.443l1.018.08a1.766,1.766,0,0,1-1.818,1.164,1.835,1.835,0,0,1-1.914-1.964,1.839,1.839,0,0,1,1.914-1.978,1.839,1.839,0,0,1,1.913,1.978v.292h-2.735" transform="translate(-109.611 124.552)" fill="#fff"/>
      <path id="path130" d="M202.078-19.585c-.014-.312-.24-.5-.64-.5-.277,0-.553.109-.553.335,0,.669,2.328.087,2.328,1.6,0,.291-.159,1.251-1.7,1.251a1.471,1.471,0,0,1-1.658-1.265H200.9c.014.363.335.509.648.509.269,0,.618-.08.618-.385,0-.625-2.241-.059-2.241-1.6,0-.575.445-1.2,1.55-1.2.96,0,1.593.422,1.651,1.237l-1.047.021" transform="translate(-115.044 124.552)" fill="#fff"/>
      <path id="path132" d="M208.087-22h.48v-1.077h1.047V-22h.553v.8h-.553v1.891c0,.167.073.247.342.247a.839.839,0,0,0,.211-.023v.822a3.929,3.929,0,0,1-.5.044c-.684,0-1.1-.168-1.1-.975V-21.2h-.48V-22" transform="translate(-119.661 125.816)" fill="#fff"/>
      <path id="path134" d="M217.022-20.609h1.149l.793,2.473h.014l.793-2.473h1.149l-1.4,3.738h-1.091l-1.4-3.738" transform="translate(-124.65 124.42)" fill="#fff"/>
      <path id="path136" d="M226.561-22.908h1.047v3.738h-1.047Zm.523-1.775a.622.622,0,0,1,.61.6.63.63,0,0,1-.61.618.628.628,0,0,1-.611-.6.631.631,0,0,1,.611-.618" transform="translate(-129.957 126.719)" fill="#fff"/>
      <path id="path138" d="M229.931-22h.48v-1.077h1.047V-22h.553v.8h-.553v1.891c0,.167.073.247.342.247a.834.834,0,0,0,.211-.023v.822a3.929,3.929,0,0,1-.5.044c-.683,0-1.1-.168-1.1-.975V-21.2h-.48V-22" transform="translate(-131.887 125.816)" fill="#fff"/>
      <path id="path140" d="M237.987-18.632l-.872.08c-.48.043-.641.188-.641.458,0,.335.306.437.655.437.328,0,.858-.182.858-.633Zm.044,1.142h-.014a1.543,1.543,0,0,1-1.28.589,1.169,1.169,0,0,1-1.309-1.142c0-.4.131-1.062,1.594-1.149l.967-.06v-.174c0-.444-.277-.662-.735-.662-.428,0-.684.219-.7.554h-1c.036-.575.442-1.31,1.752-1.31.924,0,1.695.35,1.695,1.208v2.167a2.069,2.069,0,0,0,.051.465h-1.011v-.487" transform="translate(-134.952 124.552)" fill="#fff"/>
      <path id="path142" d="M245.381-24.584h1.047v5.47h-1.047v-5.47" transform="translate(-140.541 126.663)" fill="#fff"/>
      <path id="path144" d="M253.869-24.584h1.047v3.753h-1.047Zm.524,4.336a.615.615,0,0,1,.61.611.615.615,0,0,1-.61.611.614.614,0,0,1-.611-.611.614.614,0,0,1,.611-.611" transform="translate(-145.243 126.663)" fill="#fff"/>
      <path id="path146" d="M18.515-95.482a1.731,1.731,0,0,0,1.187-.492,1.7,1.7,0,0,0,.492-1.187,1.708,1.708,0,0,0-1.679-1.679,1.73,1.73,0,0,0-1.187.492,1.707,1.707,0,0,0-.492,1.187,1.708,1.708,0,0,0,1.679,1.679h0" transform="translate(-12.664 168.176)" fill="#fff"/>
      <path id="path148" d="M52.876-150.1a1.025,1.025,0,0,0,0-2.05,1.025,1.025,0,0,0,0,2.05h0" transform="translate(-32.447 198.005)" fill="#fff"/>
      <path id="path150" d="M35.182-107.178a.813.813,0,0,0,0-1.626.813.813,0,0,0,0,1.626h0" transform="translate(-22.576 173.741)" fill="#fff"/>
      <path id="path152" d="M243.847-177.543a2.739,2.739,0,0,0,1.4-.314,2.731,2.731,0,0,0,1.172-.752,2.731,2.731,0,0,0,.753-1.172,2.744,2.744,0,0,0,.313-1.4q-.064-.483-.13-.967a3.639,3.639,0,0,0-.935-1.606l-.736-.569a3.62,3.62,0,0,0-1.837-.5,2.735,2.735,0,0,0-1.4.313,2.741,2.741,0,0,0-1.172.752,2.721,2.721,0,0,0-.751,1.171,2.738,2.738,0,0,0-.314,1.4q.066.484.13.968a3.645,3.645,0,0,0,.935,1.606l.737.569a3.623,3.623,0,0,0,1.836.5h0" transform="translate(-137.6 216.306)" fill="#fff"/>
      <path id="path154" d="M245.873-208.307a1.522,1.522,0,0,0-.184-.6.962.962,0,0,0-1.64,0,1.543,1.543,0,0,0-.184.6,1.069,1.069,0,0,0,.268,1.012,1.082,1.082,0,0,0,.736.3,1.075,1.075,0,0,0,.736-.3,1.084,1.084,0,0,0,.268-1.012h0" transform="translate(-139.672 230.025)" fill="#fff"/>
      <path id="path156" d="M229.665-250a2.377,2.377,0,0,0,1.209-.271,2.354,2.354,0,0,0,1.01-.649,2.343,2.343,0,0,0,.649-1.01,2.357,2.357,0,0,0,.27-1.21c-.037-.278-.075-.556-.112-.834a3.139,3.139,0,0,0-.807-1.385,3.262,3.262,0,0,0-2.219-.919,2.371,2.371,0,0,0-1.21.27,2.349,2.349,0,0,0-1.01.649,2.337,2.337,0,0,0-.649,1.01,2.358,2.358,0,0,0-.271,1.209l.112.835a3.135,3.135,0,0,0,.807,1.384,3.26,3.26,0,0,0,2.22.92h0" transform="translate(-129.952 256.281)" fill="#fff"/>
      <path id="path158" d="M116.412-212.27a.513.513,0,0,0,0-1.025.513.513,0,0,0,0,1.025h0" transform="translate(-68.078 232.02)" fill="#fff"/>
      <path id="path160" d="M80.041-220.479a.965.965,0,0,0,.954-.954.971.971,0,0,0-.954-.955.965.965,0,0,0-.955.955.971.971,0,0,0,.955.954h0" transform="translate(-47.46 237.152)" fill="#fff"/>
      <path id="path162" d="M88.793-206.245a2.718,2.718,0,0,0,1.862-.771,1.978,1.978,0,0,0,.545-.847,1.98,1.98,0,0,0,.226-1.014,2.659,2.659,0,0,0-.771-1.862,2.735,2.735,0,0,0-1.862-.771,2.715,2.715,0,0,0-1.862.771,1.968,1.968,0,0,0-.544.847,1.98,1.98,0,0,0-.227,1.015,2.66,2.66,0,0,0,.771,1.862,2.734,2.734,0,0,0,1.862.771h0" transform="translate(-51.411 231.232)" fill="#fff"/>
      <path id="path164" d="M133.205-245.962c-.616-.735-2.195,1.231-2.65,1.742a4.708,4.708,0,0,0-.76,5.758,3.939,3.939,0,0,0,5.839,1,7.039,7.039,0,0,0,1.976-2.225c.457-1.116-.223-1.785-1.341-1.364a5.231,5.231,0,0,0-1.7,1.3,8.845,8.845,0,0,0-2.378,3.3c-.633,1.844-.393,5.5,2.13,5.826,1.114.142,2.068-.853,2.7-1.666.595-.765.581-2.255-.817-1.765-.524.184-.937.783-1.305,1.165a6.09,6.09,0,0,0-1.35,6.421c-.082-.237,1.294-.989,1.205-1.248a6.225,6.225,0,0,1,.754-5.792l-1.024,1.07c1.142-1.155,2.326.177,1.38,1.341q.6-.624,1.206-1.248c-2.9,2.1-4.332-2.562-3.856-4.695a3.563,3.563,0,0,1,1.85-2.762c1.707-.659,1.679,1.039.891,2.033L137.137-239a3.923,3.923,0,0,1-6.137-.711,4.346,4.346,0,0,1-.583-3.306c.108-.487.8-2.632,1.582-1.7-.031-.037,1.253-1.191,1.205-1.248h0" transform="translate(-75.439 250.549)" fill="#fff"/>
      <path id="path166" d="M18.067-152.823a6.359,6.359,0,0,0,2.327,6.726c1.793,1.353,5.734,2.514,7.527.584a6.945,6.945,0,0,0,1.238-2.794,5.184,5.184,0,0,0-.2-3.429c-.527-1.039-1.923-1.8-2.942-.9a5.978,5.978,0,0,0-1.169,2.557c-.7,2.615,1.317,5.672,3.533,6.928,1.926,1.092,4.169.717,5.071-1.385.5-1.166,1.32-3.117-.2-3.941-1.243-.674-1.827,1.48-2.019,2.466-.531,2.732,1.095,6.859,4.491,5.846.377-.112.318-1.654.674-1.76-3.615,1.077-4.915-3.352-4.448-6.1l-.674,1.76c.894-1.842,2.534.7,2.055,2.005l.581-1.5c-3.132,4.709-9.31-2.172-8.388-6.082q-.33.865-.66,1.73a1.763,1.763,0,0,1,3.153-.3c.9,1.128.77,2.967.336,4.255l.664-1.728c-1.4,2.521-5.513,1.612-7.506.336a6.383,6.383,0,0,1-2.77-7.033c-.157.6-.516,1.155-.674,1.761h0" transform="translate(-13.24 199.43)" fill="#fff"/>
      <path id="path168" d="M270.529-198.772c3.307,0,3.313-5.14,0-5.14s-3.312,5.14,0,5.14h0" transform="translate(-153.197 226.979)" fill="#fff"/>
      <path id="path170" d="M183.609-202.908a.488.488,0,0,0,0-.976.488.488,0,0,0,0,.976h0" transform="translate(-105.703 226.953)" fill="#fff"/>
      <path id="path172" d="M185.3-217.547a1.123,1.123,0,0,0,0-2.245,1.123,1.123,0,0,0,0,2.245h0" transform="translate(-106.302 235.686)" fill="#fff"/>
      <path id="path174" d="M115.293-161.78a1.45,1.45,0,0,0,0-2.9,1.45,1.45,0,0,0,0,2.9h0" transform="translate(-66.939 205.018)" fill="#fff"/>
      <path id="path176" d="M44.93-204.313a.92.92,0,0,0,0-1.838.92.92,0,0,0,0,1.838h0" transform="translate(-28.02 228.225)" fill="#fff"/>
      <path id="path178" d="M31.363-183.6a2.412,2.412,0,0,0,1.654-.685,2.377,2.377,0,0,0,.685-1.654,2.365,2.365,0,0,0-.685-1.654,2.432,2.432,0,0,0-1.654-.685,2.412,2.412,0,0,0-1.654.685,2.38,2.38,0,0,0-.685,1.654,2.364,2.364,0,0,0,.685,1.654,2.433,2.433,0,0,0,1.654.685h0" transform="translate(-19.543 218.231)" fill="#fff"/>
      <path id="path180" d="M8.335-128.781a1.114,1.114,0,0,0,0-2.226,1.114,1.114,0,0,0,0,2.226h0" transform="translate(-7.26 186.171)" fill="#fff"/>
      <path id="path182" d="M71.94-149.646c-9.508,1.755-16.919-3.235-19.157-10.032l8.557-1.58c1.477,2.677,4.681,4.052,9.054,3.244,4.881-.9,7.477-4.592,6.588-9.409-.9-4.881-4.47-7.172-9.738-6.593a39.457,39.457,0,0,0-7.663,1.809L65.8-186.793,51.223-184.1l-1.44-7.8,29.6-5.465-7.819,16.586c7.017.015,12.355,4.077,13.782,11.81,1.744,9.445-3.9,17.566-13.409,19.322" transform="translate(-31.26 223.521)" fill="#fff"/>
      <path id="path184" d="M169.524-151.88a2.691,2.691,0,0,0-2.443,2.916A2.688,2.688,0,0,0,170-146.524a2.687,2.687,0,0,0,2.443-2.913,2.691,2.691,0,0,0-2.916-2.442" transform="translate(-96.688 197.874)" fill="#fff"/>
      <path id="path186" d="M193.664-155.86a2.691,2.691,0,0,0-2.917-2.442,2.689,2.689,0,0,0-2.443,2.916,2.688,2.688,0,0,0,2.916,2.441,2.69,2.69,0,0,0,2.444-2.915" transform="translate(-108.565 201.467)" fill="#fff"/>
      <path id="path188" d="M165.71-228.936a2.705,2.705,0,0,1,2.929,2.457,2.7,2.7,0,0,1-2.453,2.928,2.7,2.7,0,0,1-2.93-2.453,2.707,2.707,0,0,1,2.454-2.932m-17.35,53.461a20.775,20.775,0,0,0,4.6-.939,9.89,9.89,0,0,1-4.133-3.344c-.276.038-.553.073-.835.1A16.368,16.368,0,0,1,130.173-194.4a16.369,16.369,0,0,1,14.956-17.635,16.37,16.37,0,0,1,17.818,14.739,15.8,15.8,0,0,1-.173,4.1,9.792,9.792,0,0,1,3.2,4.275,20.1,20.1,0,0,0,1.162-8.743,20.575,20.575,0,0,0-22.372-18.555,21.269,21.269,0,0,0-2.246.323,26.231,26.231,0,0,1,.115-3.134c.251-2.554,1.017-6.092,3.253-8.459a11.2,11.2,0,0,1,8.2-3.485,9.011,9.011,0,0,1,5.544,1.963,6.882,6.882,0,0,0-.555,3.377,6.913,6.913,0,0,0,7.487,6.269,6.912,6.912,0,0,0,6.27-7.484,6.914,6.914,0,0,0-7.486-6.274,6.851,6.851,0,0,0-2.932.961,13.243,13.243,0,0,0-8.249-3.013,15.466,15.466,0,0,0-11.331,4.8c-4.636,4.909-4.662,12.717-4.467,15.776a20.506,20.506,0,0,0-12.375,20.572,20.577,20.577,0,0,0,22.373,18.553" transform="translate(-73.441 244.37)" fill="#fff"/>
      <path id="path190" d="M191.369-132.481v0a1.172,1.172,0,0,1-.016,1.639,1.17,1.17,0,0,1-1.61.3c-.012-.009-.019-.022-.03-.031l-1.377-1.152-1.153,1.377c-.011.011-.014.025-.023.035a1.17,1.17,0,0,1-1.639-.015,1.168,1.168,0,0,1-.3-1.611s0,0,0,0v0l1.177-1.405-1.372-1.149a.235.235,0,0,1-.035-.025,1.168,1.168,0,0,1,.014-1.639,1.171,1.171,0,0,1,1.612-.3l0,0,0,0,1.4,1.174,1.179-1.4v0a1.171,1.171,0,0,1,1.641.015,1.173,1.173,0,0,1,.3,1.613.4.4,0,0,0-.032.028l-1.149,1.373Zm2.945-.288a8.55,8.55,0,0,0-9.259-7.755,8.549,8.549,0,0,0-7.754,9.259,8.548,8.548,0,0,0,9.258,7.754,8.548,8.548,0,0,0,7.755-9.257" transform="translate(-102.327 191.606)" fill="#fff"/>
      <path id="path192" d="M241.919-233.89c-.631,2.914,2.677,4.526,4.947,2.908a9.069,9.069,0,0,0,2.222-2.355c.482-.784,1.445-3.451-.292-2.835a4.118,4.118,0,0,0-1.4,1.155c-1.349,1.4-1.661,2.988-.3,4.615.889,1.06,2.248,1.774,3.479.836a9.247,9.247,0,0,0,.936-.937,12.1,12.1,0,0,0,1.165-1.361c.406-.569,2.076-3.222.844-3.817-.519-.251-1.5,1.04-1.757,1.47-1.507,2.572,1.115,5.232,3.649,5.091.432-.025.79-1.225,1.205-1.249-2.676.15-5.235-2.766-3.5-5.308l-1.205,1.247c.853-.36.74,1.307.636,1.763a7.307,7.307,0,0,1-1.647,2.782l1.182-1.227c-2.522,2.462-5.985-2.078-4.082-4.523q-.6.624-1.205,1.248c.691-.589,1.805-1.18,1.731.14a4.586,4.586,0,0,1-1.255,2.918l1.185-1.224c-2.213,1.836-6.051.71-5.337-2.585-.1.473-1.1.761-1.2,1.248h0" transform="translate(-138.455 244.983)" fill="#fff"/>
    </g>
  </g>
</svg>
