<svg xmlns="http://www.w3.org/2000/svg" width="451" height="451" viewBox="0 0 451 451">
  <g id="Picto_logo" data-name="Picto logo" transform="translate(183 -1917)">
    <circle id="Ellipse_54" data-name="Ellipse 54" cx="225.5" cy="225.5" r="225.5" transform="translate(-183 1917)" fill="#fff"/>
    <g id="Picto_logo-2" data-name="Picto logo" transform="translate(-47.376 1954.488)">
      <path id="path184" d="M182.071-151.826A16.451,16.451,0,0,0,167.135-134a16.434,16.434,0,0,0,17.831,14.912A16.427,16.427,0,0,0,199.9-136.9a16.447,16.447,0,0,0-17.826-14.93" transform="translate(-57.555 376.787)" fill="#151922"/>
      <path id="path186" d="M221.121-143.319a16.45,16.45,0,0,0-17.831-14.929,16.44,16.44,0,0,0-14.931,17.826,16.429,16.429,0,0,0,17.823,14.92,16.443,16.443,0,0,0,14.939-17.817" transform="translate(-21.641 365.915)" fill="#151922"/>
      <path id="path188" d="M369.218-197.028a16.538,16.538,0,0,1,17.906,15.019,16.53,16.53,0,0,1-15,17.9A16.533,16.533,0,0,1,354.217-179.1a16.546,16.546,0,0,1,15-17.926M263.158,129.78a127,127,0,0,0,28.107-5.742A60.454,60.454,0,0,1,266,103.6c-1.69.234-3.383.447-5.107.6-55.234,4.884-104.087-35.529-108.911-90.09S188.171-88.815,243.411-93.7s104.1,35.537,108.919,90.1a96.6,96.6,0,0,1-1.056,25.047A59.859,59.859,0,0,1,370.8,47.584a122.885,122.885,0,0,0,7.1-53.444c-6.072-68.675-67.414-119.555-136.761-113.424a130.022,130.022,0,0,0-13.728,1.976,160.364,160.364,0,0,1,.7-19.161c1.534-15.612,6.215-37.24,19.883-51.707a68.437,68.437,0,0,1,50.117-21.306,55.086,55.086,0,0,1,33.888,12,42.07,42.07,0,0,0-3.391,20.643,42.257,42.257,0,0,0,45.769,38.32,42.253,42.253,0,0,0,38.327-45.751,42.266,42.266,0,0,0-45.761-38.351,41.877,41.877,0,0,0-17.922,5.875,80.951,80.951,0,0,0-50.424-18.416c-25.548-.468-51.453,10.481-69.266,29.334-28.339,30.011-28.5,77.74-27.307,96.439-48.492,20.912-80.5,70.819-75.645,125.755,6.068,68.662,67.426,119.541,136.765,113.415" transform="translate(-125.908 235.177)" fill="#151922"/>
      <path id="path190" d="M263.466-91.181l-.005.016c2.692,2.254,2.642,6.745-.1,10.022s-7.154,4.1-9.845,1.852c-.07-.055-.117-.133-.185-.192l-8.415-7.044-7.05,8.415c-.065.065-.086.156-.143.213-2.254,2.7-6.756,2.655-10.022-.091s-4.116-7.159-1.846-9.85c-.005-.005,0-.01,0-.01l-.008-.021,7.2-8.592-8.386-7.026a1.441,1.441,0,0,1-.216-.156c-2.7-2.252-2.663-6.745.088-10.017,2.736-3.277,7.164-4.108,9.853-1.849.005,0,.005.008.013.013l.01-.01,8.573,7.177,7.206-8.587.005.013c2.262-2.7,6.759-2.659,10.03.094s4.106,7.159,1.852,9.863a2.436,2.436,0,0,0-.193.169l-7.026,8.394Zm18-1.763a52.265,52.265,0,0,0-56.6-47.409,52.258,52.258,0,0,0-47.4,56.6,52.251,52.251,0,0,0,56.592,47.4,52.255,52.255,0,0,0,47.4-56.59" transform="translate(-39.884 396.415)" fill="#ed1344"/>
    </g>
  </g>
</svg>
