<?xml version="1.0" encoding="utf-8"?>
<!-- Generator: Adobe Illustrator 14.0.0, SVG Export Plug-In . SVG Version: 6.00 Build 43363)  -->
<!DOCTYPE svg PUBLIC "-//W3C//DTD SVG 1.1//EN" "http://www.w3.org/Graphics/SVG/1.1/DTD/svg11.dtd">
<svg version="1.1" id="Calque_1" xmlns="http://www.w3.org/2000/svg" xmlns:xlink="http://www.w3.org/1999/xlink" x="0px" y="0px"
	 width="74.289px" height="136.564px" viewBox="0 0 74.289 136.564" enable-background="new 0 0 74.289 136.564"
	 xml:space="preserve">
<path fill="#262626" d="M74.148,2.909C73.688,1.238,72.062,0,70.349,0C70-0.001,69.65,0.051,69.303,0.16
	C65.105,1.478,60.891,2.774,57,4.877c-3.736,2.022-7.263,4.391-10.573,7.052c-3.26,2.622-6.358,5.448-9.081,8.631
	c-2.898,3.399-5.486,7.067-7.678,10.961c-4.079,7.264-6.647,15.215-8.759,23.235c-2.011,7.647-3.557,15.437-4.813,23.241
	c-0.703,4.352-1.173,8.747-1.607,13.134c-0.346,3.472-0.643,6.947-0.888,10.424c-0.535-1.696-1.104-3.382-1.724-5.053
	c-0.61-1.65-1.299-3.311-2.083-4.887c-0.322-0.646-0.638-1.296-1.011-1.91c-0.873-1.439-1.949-3.104-3.722-3.478
	c-0.7-0.187-1.396-0.187-2.092,0c-1.072,0.298-1.719,0.951-2.353,1.809c-0.966,1.307-0.593,3.049-0.25,4.494
	c0.199,0.857,0.507,1.691,0.792,2.522c0.58,1.695,1.168,3.383,1.715,5.09c1.223,3.818,2.311,7.666,3.313,11.55
	c1.022,3.948,1.944,7.921,2.903,11.885c0.465,1.922,0.961,3.841,1.48,5.752c0.445,1.642,1.026,3.279,1.799,4.794
	c0.107,0.146,0.212,0.296,0.319,0.442c0.35,0.592,0.822,1.062,1.415,1.41c0.615,0.362,1.487,0.589,2.203,0.589
	c0.769,0,1.533-0.223,2.168-0.661c0.592-0.35,1.062-0.822,1.411-1.415c0.188-0.411,0.368-0.83,0.538-1.249
	c0.836-4.055,1.138-7.811,2.888-11.656c1.673-3.679,3.894-7.073,6.021-10.498c2.157-3.472,4.426-6.87,6.725-10.246
	c1.211-1.777,0.347-4.36-1.411-5.387c-0.907-0.534-2.02-0.677-3.033-0.399c-1.038,0.288-1.761,0.942-2.353,1.811
	c-2.734,4.011-5.395,8.059-7.926,12.199c-0.083,0.137-0.166,0.272-0.248,0.408c0.023-0.741,0.049-1.481,0.076-2.223
	c0.146-3.918,0.431-7.831,0.788-11.738c0.381-4.16,0.77-8.319,1.308-12.464c0.006-0.047,0.012-0.095,0.018-0.142
	c1.013-7.078,2.391-14.102,3.996-21.066c1.576-6.86,3.495-13.66,6.145-20.183c0.987-2.21,2.047-4.374,3.236-6.485
	c1.309-2.335,2.806-4.555,4.378-6.719c1.536-1.946,3.142-3.812,4.896-5.568c1.887-1.888,3.898-3.634,5.973-5.308
	c3.736-2.827,7.667-5.357,11.948-7.284c2.478-0.963,5.014-1.742,7.551-2.542C73.44,7.107,74.732,5.035,74.148,2.909"/>
</svg>
