<?xml version="1.0" encoding="utf-8"?>
<!-- Generator: Adobe Illustrator 14.0.0, SVG Export Plug-In . SVG Version: 6.00 Build 43363)  -->
<!DOCTYPE svg PUBLIC "-//W3C//DTD SVG 1.1//EN" "http://www.w3.org/Graphics/SVG/1.1/DTD/svg11.dtd">
<svg version="1.1" id="Calque_1" xmlns="http://www.w3.org/2000/svg" xmlns:xlink="http://www.w3.org/1999/xlink" x="0px" y="0px"
	 width="129.115px" height="100.74px" viewBox="0 0 129.115 100.74" enable-background="new 0 0 129.115 100.74"
	 xml:space="preserve">
<path fill="#262626" d="M128.894,94.21c-0.384-1.938-1.101-3.808-1.606-5.713c-0.431-1.615-0.758-3.262-1.192-4.876
	c-0.461-1.729-1.007-3.433-1.499-5.155c-0.874-3.067-1.342-6.221-1.777-9.376c-0.331-2.617-0.595-5.24-0.898-7.857
	c-0.048-0.349-0.093-0.699-0.139-1.045c-0.188-0.669-0.527-1.246-1.016-1.737c-0.734-0.734-1.741-1.154-2.783-1.154
	c-1.038,0-2.049,0.42-2.783,1.154c-0.666,0.664-1.266,1.807-1.154,2.782c0.287,2.486,0.567,4.971,0.871,7.452
	c-0.402-0.843-0.805-1.686-1.233-2.515c-1.726-3.341-3.472-6.663-5.548-9.804c-2.076-3.142-4.252-6.225-6.54-9.213
	c-2.652-3.461-5.405-6.833-8.362-10.039c-2.607-2.829-5.371-5.513-8.105-8.219c-2.771-2.743-5.547-5.483-8.5-8.037
	c-3.222-2.782-6.598-5.366-10.196-7.65c-3.422-2.168-6.989-4.096-10.681-5.764c-3.599-1.631-7.252-3.187-11.034-4.34
	C37.879,1.028,30.647,0,23.482,0c-0.958,0-1.914,0.019-2.869,0.056c-3.006,0.115-5.975,0.345-8.95,0.792
	c-3.026,0.453-5.921,1.649-8.773,2.71c-0.996,0.369-1.8,0.865-2.354,1.812C0.005,6.275-0.141,7.384,0.14,8.401
	c0.269,0.985,0.93,1.838,1.811,2.354c0.841,0.491,2.084,0.749,3.033,0.395c1.592-0.591,3.183-1.226,4.81-1.726
	c1.513-0.464,3.021-0.821,4.577-1.073c5.94-0.663,11.972-0.62,17.909,0.076c2.884,0.431,5.728,1.01,8.549,1.747
	c2.805,0.737,5.523,1.76,8.202,2.855c2.911,1.254,5.8,2.57,8.573,4.115c3.305,1.847,6.534,3.824,9.567,6.086
	c2.406,1.887,4.736,3.868,6.969,5.956c2.444,2.287,4.806,4.667,7.186,7.021c2.361,2.334,4.694,4.687,6.944,7.128
	c2.278,2.473,4.409,5.08,6.478,7.728c3.698,4.854,7.262,9.878,10.143,15.265c1.265,2.367,2.444,4.773,3.632,7.181
	c-0.357-0.4-0.711-0.8-1.077-1.191c-2.723-2.91-6.041-5.179-9.224-7.547c-0.805-0.596-2.111-0.649-3.034-0.396
	c-0.984,0.269-1.838,0.93-2.353,1.811c-0.534,0.907-0.677,2.015-0.396,3.033c0.292,1.069,0.946,1.711,1.808,2.353
	c1.253,0.932,2.507,1.865,3.755,2.809c1.375,1.085,2.674,2.218,3.877,3.505c1.296,1.385,2.498,2.853,3.76,4.267
	c2.453,2.753,5.11,5.314,7.654,7.983c2.454,2.576,4.745,5.302,7.117,7.947c0.331,0.373,0.669,0.737,1.012,1.096
	c0.377,0.387,0.834,0.719,1.307,0.984c0.742,0.423,1.354,0.457,2.181,0.564c0.738,0.092,1.511-0.304,2.138-0.611
	c0.646-0.318,1.176-0.98,1.511-1.596C129.29,97.171,129.187,95.667,128.894,94.21"/>
</svg>
