<?xml version="1.0" encoding="utf-8"?>
<!-- Generator: Adobe Illustrator 14.0.0, SVG Export Plug-In . SVG Version: 6.00 Build 43363)  -->
<!DOCTYPE svg PUBLIC "-//W3C//DTD SVG 1.1//EN" "http://www.w3.org/Graphics/SVG/1.1/DTD/svg11.dtd">
<svg version="1.1" id="Calque_1" xmlns="http://www.w3.org/2000/svg" xmlns:xlink="http://www.w3.org/1999/xlink" x="0px" y="0px"
	 width="52.943px" height="74.129px" viewBox="0 0 52.943 74.129" enable-background="new 0 0 52.943 74.129" xml:space="preserve">
<path fill="#262626" d="M52.4,25.258c-0.846-1.352-1.514-2.77-2.157-4.223C47.759,15.427,45.487,9.659,43.7,3.8
	c-0.958-3.146-4.704-5.453-7.104-2.284c-2.433,3.212-3.547,7.096-5.022,10.778c-1.058,2.424-2.228,4.781-3.454,7.128
	c-0.615,1.184-1.238,2.363-1.818,3.563c-1.127,2.318-2.891,5.821-0.42,7.936c0.493,0.487,1.074,0.827,1.739,1.016
	c1.095,0.3,2.037,0.065,3.033-0.401c1.564-0.722,2.318-2.563,3.025-4.032c0.377-0.785,0.729-1.586,1.079-2.386
	c-0.33,5.323-0.793,10.632-1.439,15.926c-0.281,2.08-0.57,4.168-1.043,6.211c-0.509,2.199-1.12,4.332-1.929,6.434
	c-0.736,1.57-1.563,3.045-2.561,4.463c-1.166,1.375-2.428,2.61-3.816,3.754c-1.158,0.806-2.348,1.515-3.615,2.125
	c-2.351,0.903-4.779,1.485-7.265,1.896c-3.045,0.346-6.093,0.332-9.154,0.329C1.792,66.255,0,68.046,0,70.191
	c0,2.149,1.792,3.938,3.937,3.938c4.311,0.004,8.59-0.02,12.83-0.886c3.906-0.799,7.751-2.098,11.023-4.428
	c1.688-1.201,3.311-2.546,4.698-4.087c1.445-1.604,2.81-3.368,3.799-5.295c1.922-3.752,3.229-7.759,3.944-11.911
	c1.3-7.551,1.945-15.195,2.426-22.838c0.027-0.425,0.054-0.851,0.078-1.277c0.819,2.014,1.719,3.996,2.867,5.826
	c1.139,1.814,3.486,2.522,5.387,1.411C52.796,29.587,53.542,27.075,52.4,25.258"/>
</svg>
