<?xml version="1.0" encoding="utf-8"?>
<!-- Generator: Adobe Illustrator 14.0.0, SVG Export Plug-In . SVG Version: 6.00 Build 43363)  -->
<!DOCTYPE svg PUBLIC "-//W3C//DTD SVG 1.1//EN" "http://www.w3.org/Graphics/SVG/1.1/DTD/svg11.dtd">
<svg version="1.1" id="Calque_1" xmlns="http://www.w3.org/2000/svg" xmlns:xlink="http://www.w3.org/1999/xlink" x="0px" y="0px"
	 width="95.548px" height="122.943px" viewBox="0 0 95.548 122.943" enable-background="new 0 0 95.548 122.943"
	 xml:space="preserve">
<path fill="#262626" d="M95.472,10.307c-0.085-0.829-0.231-1.625-0.446-2.433c-0.197-0.723-0.558-1.415-0.884-2.088
	c-0.315-0.638-0.839-1.176-1.28-1.729c-0.416-0.52-1.185-1.081-1.723-1.431c-1.096-0.7-2.28-1.203-3.503-1.634
	C85.69,0.303,83.49,0,81.438,0c-4.503-0.004-8.698,2.461-12.161,5.136c-3.138,2.423-6.199,5.199-7.994,8.806
	c-0.776,1.553-1.345,3.202-1.873,4.855c-0.464,1.45-0.964,2.892-1.359,4.36c-0.804,2.982-1.158,6.071-1.304,9.154
	c-0.065,1.41-0.093,2.821-0.104,4.233c-0.016,1.733,0.215,3.471,0.484,5.178c0.307,1.933,0.65,3.854,0.967,5.781
	c-3.343,1.319-6.739,2.587-10.214,3.512c-3.374,0.898-6.766,1.606-10.214,2.116c-1.927,0.209-3.847,0.345-5.788,0.407
	c-1.705,0.052-3.396-0.053-5.082-0.245c-1.396-0.251-2.803-0.515-4.165-0.916c-1.309-0.387-2.59-0.825-3.859-1.321
	c-1.452-0.677-2.811-1.461-4.114-2.387c-0.967-0.817-1.845-1.697-2.673-2.66c-0.997-1.382-1.836-2.824-2.547-4.378
	c-0.617-1.603-1.116-3.221-1.425-4.911c-0.232-2.438-0.105-4.91-0.026-7.358c0.069-2.196,0.246-4.377,0.514-6.554
	c0.222-1.512,0.479-3.02,0.852-4.505c0.349-1.38,0.804-2.718,1.321-4.041c0.964-2.143,2.025-4.243,3.068-6.346
	c0.481-0.974,0.693-1.961,0.397-3.035c-0.271-0.983-0.931-1.837-1.812-2.352c-1.754-1.026-4.433-0.512-5.387,1.411
	c-1.892,3.816-3.868,7.607-5.04,11.723C1.408,17.409,1.125,19.209,0.867,21c-0.293,2.019-0.53,4.049-0.65,6.087
	c-0.245,4.222-0.453,8.516,0.381,12.679c0.446,2.22,1.354,4.392,2.307,6.434c0.931,1.995,2.188,3.806,3.606,5.49
	c2.822,3.359,6.667,5.693,10.754,7.196c4.063,1.496,8.301,2.365,12.631,2.52c4.155,0.145,8.408-0.327,12.487-1.088
	c3.914-0.728,7.801-1.631,11.565-2.931c1.71-0.59,3.419-1.197,5.11-1.847c0.252,3.011,0.408,6.029,0.468,9.052
	c0.043,2.087,0.05,4.176,0.058,6.26c0.011,2.335,0.005,4.653-0.24,6.974c-0.286,1.851-0.67,3.685-1.12,5.507
	c-0.558,2.245-1.131,4.494-1.769,6.717c-0.396,1.382-0.843,2.752-1.323,4.112c0.392-1.592,0.76-3.187,1.05-4.801
	c0.142-0.784,0.273-1.568,0.396-2.354c0.207-1.353,0.431-2.619,0.146-3.975c-0.188-0.665-0.522-1.246-1.011-1.738
	c-0.661-0.658-1.814-1.272-2.784-1.149c-0.372,0.046-0.741,0.092-1.114,0.146c-0.665,0.188-1.246,0.526-1.734,1.014
	c-0.484,0.481-0.769,1.008-1.034,1.608c-0.357,0.826-0.688,1.664-1,2.51c-0.465,1.266-0.861,2.562-1.276,3.849
	c-0.833,2.587-1.796,5.126-2.827,7.64c-1.529,3.531-3.154,7.019-4.654,10.565c-1.416,3.347-4.685,5.756-6.026,9.23
	c-0.691,1.791-0.664,3.121,0.463,4.674c1.744,2.404,4.398,1.616,6.799,0.407c6.857-3.455,13.559-8.516,18.173-14.718
	c5.163-6.942,12.289-12.361,18.451-18.494c1.519-1.511,1.515-4.053,0-5.568c-1.519-1.518-4.049-1.51-5.567,0
	c-2.226,2.214-4.517,4.36-6.818,6.493c0.198-0.764,0.393-1.528,0.594-2.29c0.473-1.785,0.903-3.572,1.257-5.383
	c0.408-2.107,0.696-4.248,0.804-6.398c0.093-1.787,0.05-3.587,0.039-5.379c-0.016-3.655-0.043-7.308-0.27-10.957
	c-0.144-2.307-0.342-4.602-0.59-6.891c3.591-1.878,6.969-4.229,10.04-6.862c3.176-2.718,6.002-5.844,8.586-9.124
	c2.664-3.379,5.014-6.955,6.797-10.876c0.93-2.045,1.692-4.141,2.314-6.294c0.601-2.057,1.077-4.268,1.192-6.406
	C95.567,11.85,95.553,11.1,95.472,10.307 M57.559,47.74c0.178-0.077,0.357-0.152,0.537-0.229v0.001
	C57.916,47.589,57.736,47.664,57.559,47.74 M87.595,13.152c-0.508,2.825-1.32,5.538-2.37,8.204
	c-0.784,1.694-1.645,3.332-2.607,4.938c-0.9,1.504-1.922,2.932-2.959,4.349c-1.535,1.919-3.139,3.762-4.821,5.555
	c-1.609,1.718-3.373,3.268-5.2,4.747c-1.361,1.004-2.751,1.977-4.195,2.855c-0.256-1.453-0.528-2.903-0.749-4.362
	c-0.184-1.771-0.185-3.525-0.137-5.309c0.052-1.761,0.133-3.519,0.335-5.271c0.268-1.696,0.65-3.355,1.153-5.003
	c1.462-4.794,3.585-9.224,7.678-12.275c1.592-1.187,3.289-2.271,5.08-3.118c0.637-0.222,1.271-0.41,1.931-0.545
	c0.682-0.051,1.354-0.038,2.039,0.006c1.06,0.186,2.088,0.439,3.11,0.784c0.345,0.169,0.679,0.351,1.013,0.552
	c0.127,0.118,0.248,0.238,0.366,0.363c0.032,0.054,0.063,0.109,0.094,0.164c0.115,0.358,0.208,0.712,0.286,1.079
	C87.686,11.637,87.663,12.384,87.595,13.152"/>
</svg>
