<?xml version="1.0" encoding="utf-8"?>
<!-- Generator: Adobe Illustrator 14.0.0, SVG Export Plug-In . SVG Version: 6.00 Build 43363)  -->
<!DOCTYPE svg PUBLIC "-//W3C//DTD SVG 1.1//EN" "http://www.w3.org/Graphics/SVG/1.1/DTD/svg11.dtd">
<svg version="1.1" id="Calque_1" xmlns="http://www.w3.org/2000/svg" xmlns:xlink="http://www.w3.org/1999/xlink" x="0px" y="0px"
	 width="88.436px" height="57.517px" viewBox="0 0 88.436 57.517" enable-background="new 0 0 88.436 57.517" xml:space="preserve">
<path fill="#262626" d="M86.254,56.968c5.577-3.272-1.078-11.439-2.969-14.826c-1.533-2.747-2.946-5.554-4.212-8.448
	c-1.092-2.667-2.072-5.362-2.946-8.107c-0.984-3.083-1.942-6.171-2.688-9.323c-0.492-2.088-2.834-3.303-4.845-2.749
	c-2.122,0.584-3.241,2.753-2.749,4.841c0.747,3.158,1.657,6.292,2.677,9.385c-1.066-0.974-2.155-1.925-3.254-2.856
	c-3.11-2.646-6.367-5.106-9.696-7.463c-3.341-2.368-6.813-4.567-10.23-6.82c-5.917-3.896-12.28-7.509-19.231-9.151
	c-3.522-0.831-7.183-1.279-10.801-1.415C14.69,0.011,14.074,0,13.456,0c-3.178,0-6.352,0.275-9.519,0.511
	C2.864,0.592,1.934,0.884,1.153,1.663C0.419,2.398,0,3.408,0,4.446c0,1.042,0.419,2.051,1.153,2.785
	c0.688,0.692,1.784,1.23,2.784,1.153c2.91-0.215,5.816-0.439,8.735-0.504c2.381-0.054,4.758,0.104,7.12,0.388
	c1.61,0.246,3.209,0.532,4.794,0.908c1.662,0.394,3.271,0.957,4.86,1.584c2.07,0.913,4.088,1.927,6.067,3.021
	c2.36,1.312,4.613,2.804,6.866,4.287c4.603,3.034,9.218,6.043,13.624,9.367c2.393,1.883,4.704,3.852,6.961,5.9
	c1.161,1.054,2.28,2.14,3.359,3.263c-2.219-1.085-4.487-2.067-6.766-3.021c-1.05-0.441-2.126-0.83-3.211-1.184
	c-2.18-0.715-4.81-1.438-6.644,0.45c-1.522,1.563-1.499,3.998,0,5.565c0.873,0.915,2.088,1.331,3.222,1.82
	c0.938,0.403,1.865,0.834,2.784,1.284c1.672,0.818,3.307,1.725,4.917,2.66c3.553,2.061,7.04,4.236,10.512,6.429
	c1.653,1.046,3.295,2.11,4.94,3.168c1.907,1.222,3.856,2.633,6.01,3.38C83.436,57.62,84.97,57.717,86.254,56.968"/>
</svg>
