<svg xmlns="http://www.w3.org/2000/svg" width="66.64" height="52.384" viewBox="0 0 66.64 52.384">
  <path id="path166" d="M18.616-148.256a22.853,22.853,0,0,0,8.365,24.172c6.446,4.862,20.608,9.035,27.052,2.1,2.264-2.438,3.631-6.842,4.449-10.041.98-3.838,1.1-8.746-.714-12.324-1.894-3.733-6.91-6.471-10.575-3.236-2.121,1.868-3.483,6.521-4.2,9.191-2.527,9.4,4.732,20.386,12.7,24.9,6.923,3.925,14.983,2.578,18.224-4.978,1.8-4.191,4.744-11.2-.725-14.166-4.466-2.421-6.568,5.319-7.256,8.862-1.91,9.821,3.934,24.651,16.141,21.012,1.356-.4,1.144-5.944,2.422-6.327-12.994,3.871-17.663-12.048-15.988-21.919q-1.211,3.163-2.422,6.327c3.212-6.619,9.108,2.53,7.386,7.207q1.046-2.695,2.09-5.391C64.3-105.94,42.1-130.67,45.415-144.723q-1.186,3.109-2.371,6.219c2.359-5.129,7.935-5.379,11.332-1.094,3.221,4.055,2.769,10.665,1.208,15.294q1.195-3.107,2.387-6.212c-5.033,9.062-19.814,5.795-26.976,1.209a22.942,22.942,0,0,1-9.955-25.277c-.564,2.165-1.856,4.153-2.423,6.328h0" transform="translate(-17.856 154.584)" fill="#17a353"/>
</svg>
