<svg xmlns="http://www.w3.org/2000/svg" width="30.942" height="30.943" viewBox="0 0 30.942 30.943">
  <path id="path156" d="M242-225.347a11.71,11.71,0,0,0,5.957-1.334,11.6,11.6,0,0,0,4.974-3.2,11.541,11.541,0,0,0,3.2-4.974,11.61,11.61,0,0,0,1.331-5.959c-.182-1.367-.369-2.738-.551-4.108a15.465,15.465,0,0,0-3.977-6.823A16.069,16.069,0,0,0,242-256.272a11.68,11.68,0,0,0-5.959,1.33,11.57,11.57,0,0,0-4.974,3.2,11.51,11.51,0,0,0-3.2,4.975,11.615,11.615,0,0,0-1.335,5.956q.277,2.06.553,4.114a15.444,15.444,0,0,0,3.977,6.819A16.057,16.057,0,0,0,242-225.347h0" transform="translate(-226.524 256.281)" fill="#ed1344"/>
</svg>
