<svg xmlns="http://www.w3.org/2000/svg" width="26.612" height="26.611" viewBox="0 0 26.612 26.611">
  <path id="path152" d="M253.511-158.221a10.009,10.009,0,0,0,5.123-1.146,9.98,9.98,0,0,0,4.281-2.748,9.98,9.98,0,0,0,2.75-4.281,10.028,10.028,0,0,0,1.144-5.123q-.236-1.766-.476-3.533a13.3,13.3,0,0,0-3.418-5.87q-1.347-1.039-2.691-2.078a13.226,13.226,0,0,0-6.713-1.814,9.995,9.995,0,0,0-5.123,1.143,10.015,10.015,0,0,0-4.281,2.749,9.942,9.942,0,0,0-2.745,4.28,10,10,0,0,0-1.149,5.123q.243,1.768.476,3.536a13.321,13.321,0,0,0,3.418,5.869q1.347,1.037,2.694,2.077a13.24,13.24,0,0,0,6.71,1.817h0" transform="translate(-240.205 184.823)" fill="#fabfc0"/>
</svg>
