<svg xmlns="http://www.w3.org/2000/svg" width="27.73" height="63.127" viewBox="0 0 27.73 63.127">
  <path id="path164" d="M142.239-245.6c-1.978-2.362-7.05,3.955-8.511,5.6-4.606,5.175-6.364,12.344-2.44,18.494a12.651,12.651,0,0,0,18.755,3.209c2.135-1.75,5.279-4.55,6.345-7.146,1.469-3.586-.717-5.733-4.306-4.382-2.126.8-3.886,2.591-5.465,4.166-3.144,3.132-6.162,6.318-7.637,10.614-2.033,5.923-1.264,17.675,6.842,18.712,3.578.456,6.641-2.741,8.673-5.352,1.91-2.458,1.865-7.243-2.623-5.669-1.682.591-3.009,2.516-4.192,3.74-5.45,5.647-6.9,13.171-4.336,20.624-.264-.761,4.158-3.175,3.871-4.007a19.993,19.993,0,0,1,2.421-18.6q-1.642,1.718-3.289,3.436c3.667-3.71,7.472.567,4.434,4.306q1.941-2,3.873-4.009c-9.3,6.755-13.913-8.23-12.385-15.079.788-3.526,2.343-7.48,5.942-8.87,5.484-2.117,5.393,3.337,2.861,6.529q1.9-1.973,3.8-3.942a12.6,12.6,0,0,1-19.71-2.284,13.958,13.958,0,0,1-1.873-10.619c.346-1.564,2.573-8.452,5.082-5.456-.1-.117,4.024-3.824,3.871-4.007h0" transform="translate(-129.121 246.125)" fill="#ed1c24"/>
</svg>
