<svg xmlns="http://www.w3.org/2000/svg" width="77.631" height="37.547" viewBox="0 0 77.631 37.547">
  <path id="path192" d="M242.253-223.8c-3.315,15.306,14.057,23.768,25.984,15.273a47.633,47.633,0,0,0,11.671-12.37c2.529-4.118,7.592-18.125-1.535-14.889-2.953,1.049-5.225,3.865-7.348,6.065-7.086,7.333-8.726,15.694-1.562,24.241,4.667,5.568,11.805,9.319,18.271,4.39a48.562,48.562,0,0,0,4.915-4.921,63.556,63.556,0,0,0,6.119-7.147c2.134-2.986,10.905-16.92,4.435-20.047-2.723-1.317-7.9,5.46-9.227,7.72-7.913,13.51,5.856,27.478,19.165,26.737,2.27-.132,4.151-6.433,6.33-6.558-14.053.786-27.494-14.526-18.378-27.88q-3.16,3.276-6.329,6.552c4.482-1.891,3.885,6.863,3.34,9.257-1.229,5.4-5.192,10.42-8.651,14.611q3.1-3.221,6.207-6.445c-13.246,12.932-31.432-10.914-21.442-23.756q-3.16,3.276-6.329,6.553c3.63-3.091,9.482-6.2,9.093.737a24.088,24.088,0,0,1-6.591,15.325q3.107-3.212,6.222-6.427c-11.622,9.645-31.779,3.727-28.032-13.577-.538,2.486-5.772,4-6.328,6.555h0" transform="translate(-241.84 236.263)" fill="#fbc108"/>
</svg>
